<svg width="80" height="80" viewBox="0 0 80 80" fill="none" xmlns="http://www.w3.org/2000/svg">
  <g clip-path="url(#clip0_2074_1120)">
    <path
      d="M78.8034 30.3269C73.459 8.88691 51.7368 -4.14621 30.3275 1.19848C8.88683 6.54285 -4.14629 28.2641 1.19839 49.6732C6.54277 71.1132 28.2334 84.1463 49.674 78.8016C71.0834 73.4885 84.1481 51.7672 78.8034 30.3269Z"
      fill="url(#paint0_linear_2074_1120)" />
    <path
      d="M59.0449 44.9844C59.8262 50.2969 55.7949 53.1719 50.2324 55.0781L52.0449 62.2969L47.6699 63.3906L45.9199 56.3594C44.7637 56.6406 43.5762 56.9219 42.3887 57.1719L44.1387 64.2344L39.7637 65.3281L37.9824 58.1406C37.0137 58.3594 36.0762 58.5781 35.1699 58.7969V58.8281L29.1074 60.3281L27.9512 55.6406C27.9512 55.6406 31.2012 54.8906 31.1387 54.8594C32.9199 54.4219 33.2324 53.2344 33.1699 52.2969L31.1074 44.0781C31.2324 44.0469 31.3887 44.0156 31.5762 43.9219C31.4199 43.9531 31.2637 43.9844 31.1074 44.0469L28.2324 32.5469C28.0137 32.0156 27.4512 31.2031 26.2324 31.5156C26.2637 31.4531 23.0449 32.2969 23.0449 32.2969L20.8574 27.2656L26.5762 25.8281C27.6387 25.5469 28.6699 25.2969 29.7012 25.0156L27.8887 17.7344L32.2637 16.6406L34.0762 23.8594C35.2637 23.5469 36.4512 23.2344 37.5762 22.9531L35.7949 15.7656L40.1699 14.6719L41.9824 21.9531C49.4824 20.5469 55.1074 21.1094 57.4512 27.8906C59.3574 33.3281 57.3574 36.4844 53.4199 38.5469C56.3262 39.2031 58.4824 41.1094 59.0449 44.9844ZM49.0137 30.9219C47.6699 25.4844 38.4824 28.4219 35.5137 29.1719L37.9199 38.8281C40.8887 38.0781 50.4512 36.6094 49.0137 30.9219ZM50.3887 45.0781C49.1387 40.1094 41.5137 42.6406 39.0449 43.2656L41.2324 52.0156C43.7012 51.3906 51.6699 50.2344 50.3887 45.0781Z"
      fill="white" />
  </g>
  <defs>
    <linearGradient id="paint0_linear_2074_1120" x1="3997.84" y1="81.92" x2="3997.84" y2="-7919.19"
      gradientUnits="userSpaceOnUse">
      <stop stop-color="#F9AA4B" />
      <stop offset="1" stop-color="#F7931A" />
    </linearGradient>
    <clipPath id="clip0_2074_1120">
      <rect width="80" height="80" fill="white" transform="matrix(1 0 0 -1 0 80)" />
    </clipPath>
  </defs>
</svg>