<svg width="32" height="32" viewBox="0 0 32 32" fill="none" xmlns="http://www.w3.org/2000/svg">
<path fill-rule="evenodd" clip-rule="evenodd" d="M3.2848 21.7592H5.87822C6.55506 21.7592 7.10443 21.2098 7.10443 20.533C7.10443 19.8562 6.55506 19.3068 5.87822 19.3068H3.2848C2.60797 19.3068 2.05859 19.8562 2.05859 20.533C2.05859 21.2098 2.60797 21.7592 3.2848 21.7592ZM18.0925 19.3068H12.0864C11.4107 19.3068 10.8602 19.8562 10.8602 20.533C10.8602 21.2098 11.4107 21.7592 12.0864 21.7592H18.979C19.6558 21.7592 20.5448 19.6453 20.5448 19.2921V7.22621C20.5448 6.5481 19.9955 6 19.3186 6H5.14135C4.46451 6 3.91514 6.54937 3.91514 7.22621C3.91514 7.9019 4.46451 8.45242 5.14135 8.45242H18.0924V19.2921L18.0925 19.3068Z" fill="#00953E"/>
<path fill-rule="evenodd" clip-rule="evenodd" d="M3.68519 12.6306H10.5297C11.2066 12.6306 11.7559 12.0813 11.7559 11.4044C11.7559 10.7276 11.2066 10.1782 10.5297 10.1782H3.68519C3.00836 10.1782 2.45898 10.7276 2.45898 11.4044C2.45898 12.0813 3.00836 12.6306 3.68519 12.6306Z" fill="#00953E"/>
<path fill-rule="evenodd" clip-rule="evenodd" d="M5.35707 16.6726H9.56902C10.2447 16.6726 10.7952 16.1221 10.7952 15.4464C10.7952 14.7696 10.2447 14.2202 9.56902 14.2202H5.35707C4.68023 14.2202 4.13086 14.7696 4.13086 15.4464C4.13086 16.1221 4.68023 16.6726 5.35707 16.6726Z" fill="#00953E"/>
<path fill-rule="evenodd" clip-rule="evenodd" d="M19.3199 11.6988H23.901C24.6331 11.6988 25.3357 11.9894 25.8531 12.5068C26.3718 13.0242 26.6624 13.7269 26.6624 14.4589V19.3072H25.5514C24.8746 19.3072 24.3252 19.8565 24.3252 20.5334C24.3252 21.2102 24.8746 21.7596 25.5514 21.7596H27.8886C28.5655 21.7596 29.1149 21.2102 29.1149 20.5334V14.4589C29.1149 13.0757 28.5655 11.7502 27.5882 10.7727C26.6097 9.79419 25.2842 9.24609 23.9011 9.24609H19.32C18.6431 9.24609 18.0938 9.79547 18.0938 10.4723C18.0938 11.148 18.6431 11.6985 19.32 11.6985L19.3199 11.6988Z" fill="#00953E"/>
<path fill-rule="evenodd" clip-rule="evenodd" d="M27.2711 14.022H24.5563C23.8795 14.022 23.3301 14.5713 23.3301 15.2482C23.3301 15.925 23.8795 16.4744 24.5563 16.4744H27.2711C27.9479 16.4744 28.4973 15.925 28.4973 15.2482C28.4973 14.5713 27.9479 14.022 27.2711 14.022Z" fill="#00953E"/>
<path fill-rule="evenodd" clip-rule="evenodd" d="M8.90964 18.1089C6.73314 18.1089 4.96484 19.877 4.96484 22.055C4.96484 24.2328 6.733 25.9998 8.90964 25.9998C11.0875 25.9998 12.8557 24.2328 12.8557 22.055C12.8557 19.8772 11.0876 18.1089 8.90964 18.1089ZM8.90964 20.5613C9.73362 20.5613 10.4032 21.2309 10.4032 22.0549C10.4032 22.8788 9.73362 23.5471 8.90964 23.5471C8.08566 23.5471 7.41736 22.8788 7.41736 22.0549C7.41736 21.2309 8.08566 20.5613 8.90964 20.5613Z" fill="#00953E"/>
<path fill-rule="evenodd" clip-rule="evenodd" d="M22.3895 18.1089C20.2117 18.1089 18.4434 19.877 18.4434 22.055C18.4434 24.2328 20.2115 25.9998 22.3895 25.9998C24.5673 25.9998 26.3356 24.2328 26.3356 22.055C26.3356 19.8772 24.5674 18.1089 22.3895 18.1089ZM22.3895 20.5613C23.2134 20.5613 23.883 21.2309 23.883 22.0549C23.883 22.8788 23.2134 23.5471 22.3895 23.5471C21.5655 23.5471 20.8959 22.8788 20.8959 22.0549C20.8959 21.2309 21.5655 20.5613 22.3895 20.5613Z" fill="#00953E"/>
</svg>
