<svg width="50" height="50" viewBox="0 0 50 50" fill="none" xmlns="http://www.w3.org/2000/svg">
<path d="M24.9998 45.8332C13.4991 45.8206 4.17913 36.5006 4.1665 24.9999V24.5832C4.39553 13.1343 13.8219 4.01645 25.2721 4.16838C36.7222 4.3203 45.9034 13.6851 45.8286 25.136C45.7537 36.5869 36.451 45.8309 24.9998 45.8332ZM24.9665 41.6665H24.9998C34.2013 41.6573 41.6544 34.193 41.6498 24.9915C41.6452 15.7901 34.1847 8.33322 24.9832 8.33322C15.7817 8.33322 8.32111 15.7901 8.3165 24.9915C8.31191 34.193 15.765 41.6573 24.9665 41.6665ZM27.0832 37.4999H22.9165V33.3332H27.0832V37.4999ZM27.0832 31.2499H22.9165C22.8507 28.5367 24.2626 26.0015 26.604 24.629C27.979 23.5749 29.1665 22.6665 29.1665 20.8332C29.1665 18.532 27.301 16.6665 24.9998 16.6665C22.6987 16.6665 20.8332 18.532 20.8332 20.8332H16.6665V20.6457C16.7 17.6685 18.3193 14.9353 20.9144 13.4757C23.5095 12.0161 26.6861 12.0518 29.2477 13.5695C31.8093 15.0871 33.3667 17.856 33.3332 20.8332C33.184 23.0812 31.9783 25.1254 30.0832 26.3436C28.3701 27.419 27.2597 29.2349 27.0832 31.2499Z" fill="url(#paint0_linear_2031_896)"/>
<defs>
<linearGradient id="paint0_linear_2031_896" x1="4.1665" y1="24.9999" x2="45.829" y2="24.9999" gradientUnits="userSpaceOnUse">
<stop stop-color="#78B72A"/>
<stop offset="1" stop-color="#00953E"/>
</linearGradient>
</defs>
</svg>
