<svg width="30" height="30" viewBox="0 0 30 30" fill="none" xmlns="http://www.w3.org/2000/svg">
<path fill-rule="evenodd" clip-rule="evenodd" d="M27.8125 8.125C27.8125 4.84581 25.1542 2.1875 21.875 2.1875C18.5958 2.1875 15.9375 4.84581 15.9375 8.125C15.9375 11.4042 18.5958 14.0625 21.875 14.0625C25.1542 14.0625 27.8125 11.4042 27.8125 8.125Z" fill="#1C274C"/>
<path fill-rule="evenodd" clip-rule="evenodd" d="M14.0625 21.875C14.0625 18.5958 11.4042 15.9375 8.125 15.9375C4.84581 15.9375 2.1875 18.5958 2.1875 21.875C2.1875 25.1542 4.84581 27.8125 8.125 27.8125C11.4042 27.8125 14.0625 25.1542 14.0625 21.875Z" fill="#1C274C"/>
<g opacity="0.5">
<path fill-rule="evenodd" clip-rule="evenodd" d="M2.1875 8.125C2.1875 4.84581 4.84581 2.1875 8.125 2.1875C11.4042 2.1875 14.0625 4.84581 14.0625 8.125C14.0625 11.4042 11.4042 14.0625 8.125 14.0625C4.84581 14.0625 2.1875 11.4042 2.1875 8.125Z" fill="#1C274C"/>
<path fill-rule="evenodd" clip-rule="evenodd" d="M15.9375 21.875C15.9375 18.5958 18.5958 15.9375 21.875 15.9375C25.1542 15.9375 27.8125 18.5958 27.8125 21.875C27.8125 25.1542 25.1542 27.8125 21.875 27.8125C18.5958 27.8125 15.9375 25.1542 15.9375 21.875Z" fill="#1C274C"/>
</g>
</svg>
