<svg width="32" height="32" viewBox="0 0 32 32" fill="none" xmlns="http://www.w3.org/2000/svg">
<path d="M18.5104 10.2196C19.0263 10.2196 19.4458 10.6615 19.4458 11.2059C19.4458 11.9502 20.0175 12.5525 20.7229 12.5525C21.4283 12.5525 22 11.9502 22 11.2059C22 9.17669 20.4348 7.52631 18.5104 7.52631H16.7769V6.34664C16.7769 5.60229 16.2052 5 15.4998 5C14.7944 5 14.2227 5.60231 14.2227 6.34664V7.52631H12.4891C10.5652 7.52631 9 9.17675 9 11.2059V13.6677C9 15.6969 10.5652 17.3473 12.4891 17.3473H14.2227V21.7804H12.4891C11.9733 21.7804 11.5542 21.3385 11.5542 20.7941C11.5542 20.0498 10.9825 19.4475 10.2771 19.4475C9.5717 19.4475 9 20.0498 9 20.7941C9 22.8233 10.5652 24.4737 12.4891 24.4737H14.2227V25.6534C14.2227 26.3977 14.7944 27 15.4998 27C16.2052 27 16.7769 26.3977 16.7769 25.6534V24.4737H18.5104C20.4348 24.4737 22 22.8232 22 20.7941V18.3323C22 16.3045 20.4348 14.654 18.5104 14.654H16.7769V10.2196H18.5104ZM18.5104 17.3474C19.0263 17.3474 19.4458 17.7893 19.4458 18.3324V20.7942C19.4458 21.3386 19.026 21.7805 18.5104 21.7805H16.7769V17.3473L18.5104 17.3474ZM14.2227 14.6541H12.4891C11.9733 14.6541 11.5542 14.2122 11.5542 13.6678V11.206C11.5542 10.6616 11.9733 10.2197 12.4891 10.2197H14.2227V14.6541Z" fill="#00953E"/>
</svg>
