<svg width="32" height="32" viewBox="0 0 32 32" fill="none" xmlns="http://www.w3.org/2000/svg">
<path d="M15.9998 29.3334C8.63939 29.3254 2.67459 23.3605 2.6665 16.0001V15.7334C2.81308 8.40615 8.84595 2.57071 16.1741 2.66795C23.5022 2.76518 29.3781 8.75862 29.3302 16.0872C29.2823 23.4158 23.3286 29.332 15.9998 29.3334ZM15.9785 26.6668H15.9998C21.8888 26.6609 26.6588 21.8837 26.6558 15.9948C26.6529 10.1058 21.8781 5.33344 15.9892 5.33344C10.1002 5.33344 5.32545 10.1058 5.3225 15.9948C5.31956 21.8837 10.0896 26.6609 15.9785 26.6668ZM17.3332 24.0001H14.6665V21.3334H17.3332V24.0001ZM17.3332 20.0001H14.6665C14.6244 18.2637 15.528 16.6412 17.0265 15.7628C17.9065 15.0881 18.6665 14.5068 18.6665 13.3334C18.6665 11.8607 17.4726 10.6668 15.9998 10.6668C14.5271 10.6668 13.3332 11.8607 13.3332 13.3334H10.6665V13.2134C10.6879 11.308 11.7243 9.55878 13.3851 8.62464C15.046 7.69049 17.079 7.71336 18.7185 8.68464C20.3579 9.65591 21.3546 11.428 21.3332 13.3334C21.2377 14.7721 20.4661 16.0805 19.2532 16.8601C18.1568 17.5484 17.4462 18.7105 17.3332 20.0001Z" fill="#00953E"/>
</svg>
