<svg width="96" height="96" viewBox="0 0 96 96" fill="none" xmlns="http://www.w3.org/2000/svg">
<path d="M88 48C88 66.8562 88 76.2843 82.1421 82.1421C76.2843 88 66.8562 88 48 88C29.1438 88 19.7157 88 13.8579 82.1421C8 76.2843 8 66.8562 8 48C8 29.1438 8 19.7157 13.8579 13.8579C19.7157 8 29.1438 8 48 8" stroke="white" stroke-width="4" stroke-linecap="round"/>
<path d="M8 49.9996L15.0063 43.8691C18.6514 40.6797 24.1451 40.8626 27.5699 44.2874L44.7288 61.4463C47.4778 64.1952 51.805 64.5701 54.9856 62.3347L56.1784 61.4965C60.7554 58.2798 66.9477 58.6525 71.1059 62.3949L84 73.9996" stroke="white" stroke-width="4" stroke-linecap="round"/>
<path d="M60 22H74M74 22H88M74 22V36M74 22V8" stroke="white" stroke-width="4" stroke-linecap="round"/>
</svg>
