<svg width="32" height="32" viewBox="0 0 32 32" fill="none" xmlns="http://www.w3.org/2000/svg">
<path d="M27.1319 11.3192C26.6026 10.79 26.4041 9.76447 26.6687 9.06965C26.9664 8.37497 26.6356 7.54793 25.9078 7.25017C25.2131 6.95241 24.6175 6.09232 24.6175 5.33139C24.6175 4.57046 23.989 3.94202 23.2282 3.94202C22.4673 3.94202 21.6072 3.37969 21.3094 2.65182C21.0116 1.95713 20.2177 1.59326 19.4899 1.89089C18.7952 2.18865 17.7697 1.99018 17.2403 1.42772C16.711 0.898443 15.8178 0.898443 15.2885 1.42772C14.7592 1.957 13.7337 2.15546 13.0389 1.89089C12.3442 1.59313 11.5172 1.92395 11.2194 2.65182C10.9216 3.3465 10.0616 3.94202 9.30063 3.94202C8.5397 3.94202 7.91126 4.5706 7.91126 5.33139C7.91126 6.09232 7.34893 6.95241 6.62105 7.25017C5.92637 7.54793 5.5625 8.34192 5.86013 9.06965C6.15789 9.76434 5.95941 10.7898 5.39696 11.3192C4.86768 11.8485 4.86768 12.7418 5.39696 13.2711C5.92623 13.8004 6.12469 14.8259 5.86013 15.5207C5.56236 16.2154 5.89318 17.0424 6.62105 17.3402C7.31574 17.6379 7.91126 18.498 7.91126 19.2589C7.91126 20.0199 8.53984 20.6483 9.30063 20.6483C10.0616 20.6483 10.9216 21.2106 11.2194 21.9385C11.5172 22.6332 12.3112 22.9971 13.0389 22.6994C13.7336 22.4017 14.7591 22.6002 15.2885 23.1626C15.8178 23.6919 16.711 23.6919 17.2403 23.1626C17.7696 22.6333 18.7951 22.4349 19.4899 22.6994C20.1846 22.9972 21.0116 22.6664 21.3094 21.9385C21.6072 21.2438 22.4673 20.6483 23.2282 20.6483C23.9891 20.6483 24.6175 20.0197 24.6175 19.2589C24.6175 18.498 25.1799 17.6379 25.9078 17.3402C26.6024 17.0424 26.9663 16.2484 26.6687 15.5207C26.3709 14.826 26.5694 13.8005 27.1319 13.2711C27.6611 12.7418 27.6611 11.8816 27.1319 11.3192ZM23.9229 13.0064C23.526 13.4033 23.3937 14.0981 23.5921 14.5943C23.7906 15.0906 23.5591 15.6529 23.0629 15.8845C22.5666 16.083 22.1697 16.7116 22.1697 17.2409C22.1697 17.7701 21.7396 18.2333 21.1773 18.2333C20.648 18.2333 20.0194 18.6302 19.821 19.1265C19.6225 19.6227 19.027 19.8542 18.5307 19.6557C18.0345 19.4573 17.3068 19.5896 16.9428 19.9865C16.5459 20.3835 15.9503 20.3835 15.5534 19.9865C15.1565 19.5896 14.4617 19.4573 13.9654 19.6557C13.4692 19.8542 12.9069 19.6227 12.6752 19.1265C12.4768 18.6302 11.8482 18.2333 11.3189 18.2333C10.7897 18.2333 10.3265 17.8032 10.3265 17.2409C10.3265 16.7116 9.92956 16.083 9.43334 15.8845C8.93712 15.6861 8.7056 15.0906 8.90406 14.5943C9.10253 14.0981 8.97018 13.3704 8.57325 13.0064C8.17633 12.6095 8.17633 12.0139 8.57325 11.617C8.97017 11.2201 9.10252 10.5253 8.90406 10.029C8.7056 9.53282 8.93712 8.97049 9.43334 8.73884C9.92956 8.54037 10.3265 7.9118 10.3265 7.38252C10.3265 6.85325 10.7566 6.39008 11.3189 6.39008C11.8482 6.39008 12.4768 5.99316 12.6752 5.49693C12.8737 5.00071 13.4692 4.7692 13.9654 4.96766C14.4617 5.16613 15.1894 5.03378 15.5534 4.63684C15.9503 4.23992 16.5459 4.23992 16.9428 4.63684C17.3397 5.03377 18.0345 5.16612 18.5307 4.96766C19.027 4.76919 19.5893 5.00072 19.821 5.49693C20.0194 5.99316 20.648 6.39008 21.1773 6.39008C21.7065 6.39008 22.1697 6.82019 22.1697 7.38252C22.1697 7.9118 22.5666 8.54038 23.0629 8.73884C23.5591 8.9373 23.7906 9.53282 23.5921 10.029C23.3937 10.5253 23.526 11.253 23.9229 11.617C24.32 12.0139 24.32 12.6095 23.9229 13.0064Z" fill="#00953E"/>
<path d="M16.2819 14.4948L13.4038 15.9173L13.933 12.8407L11.6504 10.6243L14.8262 10.1612L16.2818 7.38232L17.7374 10.1612L20.9133 10.6243L18.6306 12.8407L19.1599 15.9173L16.2819 14.4948Z" fill="#00953E"/>
<path fill-rule="evenodd" clip-rule="evenodd" d="M19.9198 23.9234C19.1258 23.5926 18.001 23.8241 17.4056 24.4196C16.8101 25.0152 15.8177 25.0152 15.2223 24.4196C14.6268 23.8241 13.4689 23.5926 12.7081 23.9234C12.245 24.1219 11.7818 24.0558 11.3849 23.8573L11.3848 30.8375L16.1816 28.0256L21.243 30.8375V23.8573C20.8461 24.0558 20.3499 24.1219 19.9198 23.9234Z" fill="#00953E"/>
</svg>
