<svg width="85" height="84" viewBox="0 0 85 84" fill="none" xmlns="http://www.w3.org/2000/svg">
<path d="M23.248 18.2363C14.0668 18.2363 6.63281 25.6787 6.63281 34.8599C6.63281 44.0411 14.0752 51.4751 23.248 51.4751C24.8271 51.4751 26.3559 51.24 27.8007 50.8285C27.7841 51.173 27.7756 51.5088 27.7504 51.8533C27.3892 56.5069 25.8856 61.3285 23.248 65.7637C26.1041 63.8065 30.6484 60.1273 34.3108 54.0961C35.3272 52.4246 39.3844 45.4525 39.8381 35.8849C39.8633 35.3725 39.8717 35.1204 39.8717 34.8516C39.8633 25.6788 32.4293 18.2364 23.2481 18.2364L23.248 18.2363Z" fill="url(#paint0_linear_2027_1184)"/>
<path d="M61.7539 18.2363C52.5727 18.2363 45.1387 25.6787 45.1387 34.8515C45.1387 44.0327 52.5811 51.4667 61.7539 51.4667C63.333 51.4667 64.8617 51.2316 66.3066 50.82C66.2899 51.1646 66.2814 51.5004 66.2563 51.8449C65.8951 56.4985 64.3914 61.3201 61.7539 65.7553C64.61 63.798 69.1543 60.1189 72.8167 54.0877C73.8331 52.4162 77.8903 45.4441 78.344 35.8765C78.3691 35.3641 78.3776 35.112 78.3776 34.8432C78.3691 25.6788 70.9352 18.2364 61.754 18.2364L61.7539 18.2363Z" fill="url(#paint1_linear_2027_1184)"/>
<defs>
<linearGradient id="paint0_linear_2027_1184" x1="6.63281" y1="42" x2="39.8717" y2="42" gradientUnits="userSpaceOnUse">
<stop stop-color="#78B72A"/>
<stop offset="1" stop-color="#00953E"/>
</linearGradient>
<linearGradient id="paint1_linear_2027_1184" x1="45.1387" y1="41.9958" x2="78.3776" y2="41.9958" gradientUnits="userSpaceOnUse">
<stop stop-color="#78B72A"/>
<stop offset="1" stop-color="#00953E"/>
</linearGradient>
</defs>
</svg>
