<svg width="415" height="289" viewBox="0 0 415 289" fill="none" xmlns="http://www.w3.org/2000/svg">
<g opacity="0.2">
<path d="M301.491 22.7299C293.865 19.204 283.533 14.6942 275.662 11.6603C260.246 6.90445 251.8 4.19854 234.991 1.90262C234.909 1.90262 235.319 1.98462 234.991 1.90262C234.608 1.84796 234.226 1.79329 233.843 1.73863C233.46 1.68397 233.078 1.6293 232.695 1.57464C231.602 1.46531 230.509 1.32865 229.415 1.16465C214.41 0.0166933 212.442 -0.147303 199.978 0.0986879C196.37 0.262682 191.615 0.508668 188.089 0.836657C158.078 4.19854 135.611 12.1523 122.081 18.2201L118.227 20.024C112.651 22.7299 112.569 22.8119 109.7 24.3698C103.632 27.6497 103.55 27.7317 100.434 29.6176C83.7064 40.1133 73.2928 48.313 59.1073 62.3345C54.6794 67.1723 48.8576 73.7321 44.6758 78.7339C70.4229 51.3469 189.893 3.62456 276.482 15.5961C288.617 17.3181 292.635 18.794 301.491 22.7299Z" fill="url(#paint0_linear_2079_2331)"/>
<path d="M301.491 22.7299C293.865 19.204 283.533 14.6942 275.662 11.6603C260.246 6.90445 251.8 4.19854 234.991 1.90262C234.909 1.90262 235.319 1.98462 234.991 1.90262C234.608 1.84796 234.226 1.79329 233.843 1.73863C233.46 1.68397 233.078 1.6293 232.695 1.57464C231.602 1.46531 230.509 1.32865 229.415 1.16465C214.41 0.0166933 212.442 -0.147303 199.978 0.0986879C196.37 0.262682 191.615 0.508668 188.089 0.836657C158.078 4.19854 135.611 12.1523 122.081 18.2201L118.227 20.024C112.651 22.7299 112.569 22.8119 109.7 24.3698C103.632 27.6497 103.55 27.7317 100.434 29.6176C83.7064 40.1133 73.2928 48.313 59.1073 62.3345C54.6794 67.1723 48.8576 73.7321 44.6758 78.7339C70.4229 51.3469 189.893 3.62456 276.482 15.5961C288.617 17.3181 292.635 18.794 301.491 22.7299Z" fill="url(#paint1_linear_2079_2331)"/>
<path d="M379.881 253.552C278.861 210.175 48.5309 325.955 52.7947 344.076C52.9587 344.65 53.3687 345.224 53.6147 345.716L62.4704 354.9C77.9678 368.84 78.5418 369.414 88.4635 376.383C105.437 387.289 106.421 387.945 117.654 393.357L125.608 396.965C109.373 386.469 189.32 345.798 255.164 330.957C280.665 325.217 326.665 317.181 345.196 332.925C366.024 358.508 293.374 397.703 283.371 395.079C282.961 394.997 282.469 394.669 282.059 394.505C282.059 392.865 282.059 392.291 285.666 389.421C291.242 383.435 285.666 394.505 282.059 394.505C260.657 403.77 245.498 410.181 215.887 412.38C216.871 413.118 219.085 413.446 222.365 413.2C225.891 412.872 230.728 412.462 234.254 411.97C243.93 410.494 243.93 410.494 249.014 409.51C256.721 407.788 256.722 407.788 260.657 406.722C267.299 404.836 267.299 404.836 270.579 403.77C276.483 401.802 276.483 401.802 279.435 400.736C285.01 398.523 285.01 398.523 287.798 397.375C293.292 394.997 293.292 394.997 295.998 393.685C301.574 390.979 301.656 390.897 304.526 389.421C310.594 386.059 310.676 385.977 313.873 384.091C327.321 375.645 338.637 367.528 353.396 353.178C361.76 344.322 368.32 337.353 377.667 323.987C382.095 316.935 387.753 307.424 391.771 300.126C395.871 291.024 406.694 266.999 379.881 253.552Z" fill="url(#paint2_linear_2079_2331)"/>
<path d="M379.882 253.552C325.764 230.265 234.501 252.732 162.098 281.431C153.242 284.793 127.905 293.074 146.846 280.201C165.869 267.245 161.606 258.062 136.596 270.443C111.587 282.825 37.216 326.283 53.6154 345.716L62.4711 354.9C75.3446 366.462 77.9685 368.84 84.1183 373.267C116.179 344.814 291.079 264.621 372.42 299.634C379.062 302.914 383.08 306.932 385.458 311.196C387.754 307.342 389.885 303.488 391.771 300.126C395.871 291.024 406.695 266.999 379.882 253.552Z" fill="url(#paint3_linear_2079_2331)"/>
<path d="M408.742 160.321C403.084 139.822 402.674 138.182 397.18 125.062C392.916 116.207 386.849 104.645 381.929 96.1174C376.845 89.5577 370.449 81.2759 348.064 74.6342C220.558 43.8853 10.0719 142.036 4.16812 166.963C3.18415 173.195 1.7902 181.558 1.13423 187.79C-0.013734 208.617 -0.0957311 209.437 0.72424 221.655C3.10216 242.728 3.18416 243.548 5.97206 255.438L6.21804 256.176C7.20201 224.197 275.005 108.909 381.847 156.877C390.62 160.813 409.972 168.111 413.088 188.282C412.022 179.426 410.382 168.603 408.742 160.321Z" fill="url(#paint4_linear_2079_2331)"/>
<path d="M397.182 125.062C392.919 116.207 386.851 104.645 381.931 96.1173C376.847 89.5575 370.451 81.2758 348.066 74.634C286.568 59.7925 205.719 74.962 137.825 97.4292C107.815 106.203 141.269 85.2937 165.295 78.8159C177.43 75.536 187.844 66.4343 164.721 70.9442C126.592 78.4059 4.82617 139.412 4.1702 166.963C3.18623 173.195 1.79228 181.558 1.13631 187.79C0.48033 200.008 0.152344 205.337 0.152344 210.175C41.3969 172.129 244.34 82.8337 371.927 114.731C384.473 118.502 392.508 122.848 398.084 127.194C397.756 126.538 397.456 125.828 397.182 125.062Z" fill="url(#paint5_linear_2079_2331)"/>
<path style="mix-blend-mode:overlay" opacity="0.5" d="M408.744 160.321C403.086 139.822 402.676 138.182 397.182 125.062C392.918 116.206 386.851 104.645 381.931 96.1172C376.847 89.5575 370.451 81.2757 348.066 74.634C346.098 74.142 344.13 73.7047 342.162 73.322C341.452 73.158 340.768 73.0214 340.112 72.912C338.746 72.6387 337.406 72.3927 336.094 72.1741C335.275 72.0101 334.455 71.8734 333.635 71.7641C332.377 71.5454 331.147 71.3541 329.945 71.1901C329.015 71.0808 328.113 70.9714 327.239 70.8621C326.036 70.6981 324.861 70.5341 323.713 70.3701C322.729 70.2608 321.772 70.1515 320.843 70.0421C319.695 69.9328 318.52 69.8235 317.317 69.7141C316.333 69.6595 315.349 69.5775 314.365 69.4682C313.217 69.4135 312.069 69.3315 310.921 69.2222C309.883 69.1675 308.871 69.1128 307.887 69.0582C306.74 69.0035 305.592 68.9488 304.444 68.8942C303.405 68.8942 302.366 68.8668 301.328 68.8122C300.18 68.8122 299.004 68.7849 297.802 68.7302C296.763 68.7302 295.725 68.7302 294.686 68.7302C293.538 68.7302 292.39 68.7302 291.242 68.7302C290.149 68.7302 289.055 68.7575 287.962 68.8122C286.814 68.8122 285.666 68.8122 284.518 68.8122C283.425 68.8668 282.304 68.9215 281.156 68.9762C280.063 69.0308 278.942 69.0855 277.795 69.1402C276.647 69.1948 275.499 69.2495 274.351 69.3042C273.257 69.3588 272.137 69.4135 270.989 69.4682C269.841 69.5775 268.693 69.6595 267.545 69.7141C266.397 69.8235 265.249 69.9328 264.101 70.0421C262.953 70.0968 261.805 70.1788 260.657 70.2881C259.509 70.3975 258.389 70.5068 257.295 70.6161C256.093 70.7801 254.89 70.9168 253.687 71.0261C252.594 71.1354 251.501 71.2721 250.408 71.4361C249.15 71.5454 247.92 71.6821 246.718 71.8461C245.624 72.0101 244.531 72.1467 243.438 72.2561C242.235 72.4201 241.005 72.6114 239.748 72.83C238.709 72.9394 237.643 73.076 236.55 73.24C235.293 73.4587 234.035 73.65 232.778 73.814C231.74 73.978 230.701 74.1693 229.662 74.388C228.35 74.552 227.066 74.7433 225.808 74.962C224.77 75.1806 223.731 75.3719 222.693 75.5359C221.435 75.7546 220.151 76.0006 218.839 76.2739C217.855 76.4379 216.871 76.6292 215.887 76.8479C214.52 77.0666 213.153 77.3125 211.787 77.5859C210.858 77.8045 209.928 77.9959 208.999 78.1599C207.632 78.4878 206.238 78.7885 204.817 79.0618C203.942 79.2805 203.068 79.4718 202.193 79.6358C200.772 79.9638 199.351 80.2918 197.929 80.6198C197.109 80.7838 196.289 80.9751 195.469 81.1937C193.939 81.5217 192.436 81.8771 190.96 82.2597C190.249 82.4237 189.566 82.5877 188.91 82.7517C187.27 83.1343 185.657 83.517 184.072 83.8997C183.58 84.0637 183.088 84.2003 182.596 84.3096C180.792 84.747 178.988 85.2116 177.184 85.7036C177.02 85.7582 176.856 85.7856 176.692 85.7856C163.409 89.3115 150.371 93.2473 137.825 97.4292C107.815 106.203 141.269 85.2936 165.295 78.8158C177.43 75.5359 187.844 66.4343 164.721 70.9441C126.592 78.4058 4.82617 139.412 4.1702 166.963C3.18623 173.194 1.79228 181.558 1.13631 187.79C1.08164 188.501 1.02698 189.184 0.972315 189.84C0.972315 189.949 0.972315 190.059 0.972315 190.168C0.862985 192.245 0.753661 194.104 0.644331 195.744C0.644331 195.744 0.644331 195.771 0.644331 195.826C0.589667 197.52 0.534992 199.051 0.480327 200.418C0.425662 200.855 0.398338 201.292 0.398338 201.729C0.398338 201.784 0.398338 201.811 0.398338 201.811C0.398338 202.194 0.371 202.577 0.316335 202.959C0.316335 203.014 0.316335 203.041 0.316335 203.041C0.316335 203.424 0.316335 203.807 0.316335 204.189C0.234338 205.747 0.234341 207.059 0.152344 208.289C0.152344 208.289 0.152344 208.317 0.152344 208.371C0.152344 208.645 0.152344 208.918 0.152344 209.191C0.152344 209.246 0.152344 209.273 0.152344 209.273C0.152344 212.963 0.398333 216.161 0.726321 221.655C3.10424 242.728 3.18624 243.548 5.97414 255.438L6.22012 256.176C7.20409 224.197 275.007 108.909 381.849 156.877C390.623 160.813 409.974 168.111 413.09 188.282C412.024 179.426 410.384 168.603 408.744 160.321Z" fill="url(#paint6_linear_2079_2331)"/>
<path d="M44.6744 78.7342C48.9383 73.7324 54.6781 67.0907 59.1059 62.3348C71.8975 49.7893 81.8191 41.2616 100.432 29.618C106.582 26.0101 106.582 26.0101 109.698 24.3702C115.438 21.4183 115.438 21.4183 118.226 20.0243L122.08 18.2204C99.7765 28.634 103.302 31.5039 103.794 31.8319C106.254 33.3079 118.226 30.192 128.639 24.3702C144.137 17.1544 155.699 19.1223 151.845 28.306C140.775 54.9551 49.5123 95.3797 43.1165 83.5721C42.2965 82.0961 43.7725 79.9642 44.6744 78.7342Z" fill="url(#paint7_linear_2079_2331)"/>
<path d="M70.8315 53.9711C70.3396 53.1512 70.6675 52.0032 71.1595 51.0192C67.1417 54.5451 63.2878 58.235 59.1059 62.3348C54.6781 67.0907 48.9383 73.7324 44.6744 78.7343C43.7725 79.9642 42.2965 82.0961 43.1165 83.5721C49.5123 95.3797 140.775 54.9551 151.845 28.306C152.501 26.8301 152.665 25.5181 152.583 24.4522C121.506 44.7875 75.2594 62.1709 70.8315 53.9711Z" fill="url(#paint8_linear_2079_2331)"/>
<path d="M301.492 22.7299C391.197 68.4023 169.887 223.377 45.9895 255.684C30.0821 259.784 9.09079 263.801 6.2209 256.176C3.10501 247.976 -4.84871 207.715 4.17097 166.963C4.66295 191.89 155.866 132.77 220.807 62.4985C245.078 36.2594 255.902 4.28054 206.622 0.426678C245.16 -0.967273 275.991 9.77436 301.492 22.7299Z" fill="url(#paint9_linear_2079_2331)"/>
<path d="M381.928 96.1176C383.65 99.3155 385.7 103.579 386.52 107.023C407.839 194.596 100.842 377.532 53.6113 345.717C71.2407 368.02 111.993 393.521 125.605 396.965C197.434 415.004 418.58 287.499 413.497 191.398C411.283 150.4 393.981 113.747 381.928 96.1176Z" fill="url(#paint10_linear_2079_2331)"/>
<path d="M321.749 46.2633C321.038 42.7101 319.672 39.3755 317.649 36.2596C317.594 36.2596 317.567 36.2323 317.567 36.1776C314.123 31.0118 308.875 26.502 301.496 22.7301C285.998 14.8584 268.533 7.80664 248.607 3.78878C254.183 5.59272 259.513 7.72464 264.433 10.2665C341.182 49.2972 164.15 187.79 33.7751 213.701C19.0976 216.653 8.02797 216.079 0.15625 214.357C0.812227 235.185 4.3381 251.338 6.22403 256.176C9.09393 263.802 30.0852 259.784 45.9926 255.684C94.7809 242.974 158.657 211.241 212.693 174.671C231.962 161.633 257.381 151.056 222.368 179.345C200.229 197.138 222.368 197.794 262.383 165.651C330.031 111.369 327.243 65.5326 321.749 46.2633Z" fill="url(#paint11_linear_2079_2331)"/>
<path d="M321.749 46.2633C321.038 42.7101 319.672 39.3755 317.649 36.2596C317.594 36.2596 317.567 36.2323 317.567 36.1776C314.123 31.0118 308.875 26.502 301.496 22.7301C285.998 14.8584 268.533 7.80664 248.607 3.78878C254.183 5.59272 259.513 7.72464 264.433 10.2665C341.182 49.2972 164.15 187.79 33.7751 213.701C19.0976 216.653 8.02797 216.079 0.15625 214.357C0.812227 235.185 4.3381 251.338 6.22403 256.176C9.09393 263.802 30.0852 259.784 45.9926 255.684C94.7809 242.974 158.657 211.241 212.693 174.671C231.962 161.633 257.381 151.056 222.368 179.345C200.229 197.138 222.368 197.794 262.383 165.651C330.031 111.369 327.243 65.5326 321.749 46.2633Z" fill="url(#paint12_linear_2079_2331)"/>
<path d="M402.429 137.772C402.593 139.822 402.511 142.2 402.675 144.25C408.169 248.304 174.887 385.649 87.3145 375.81C102.484 386.961 117.981 395.079 125.607 396.965C133.315 398.933 142.745 399.179 153.404 397.949C159.472 397.457 162.834 399.999 155.536 401.311C147.336 402.705 138.727 402.951 126.427 401.885C120.031 401.311 118.555 417.382 162.916 408.199C321.58 375.318 381.684 276.183 403.331 233.135C405.709 232.561 400.625 240.925 399.313 246.664C397.346 255.438 408.415 257.488 413.581 220.589C417.599 191.726 409.153 156.222 402.429 137.772Z" fill="url(#paint13_linear_2079_2331)"/>
<path d="M402.429 137.772C402.593 139.822 402.511 142.2 402.675 144.25C408.169 248.304 174.887 385.649 87.3145 375.81C102.484 386.961 117.981 395.079 125.607 396.965C133.315 398.933 142.745 399.179 153.404 397.949C159.472 397.457 162.834 399.999 155.536 401.311C147.336 402.705 138.727 402.951 126.427 401.885C120.031 401.311 118.555 417.382 162.916 408.199C321.58 375.318 381.684 276.183 403.331 233.135C405.709 232.561 400.625 240.925 399.313 246.664C397.346 255.438 408.415 257.488 413.581 220.589C417.599 191.726 409.153 156.222 402.429 137.772Z" fill="url(#paint14_linear_2079_2331)"/>
<path d="M152.254 23.9603C124.375 42.1637 84.6881 57.9071 73.6185 55.2012C72.4706 54.8733 71.7052 54.3813 71.3226 53.7253C70.9946 53.124 71.104 52.304 71.6506 51.2654L71.8966 50.7734L71.6506 50.6094C71.1586 51.0467 70.6666 51.484 70.1746 51.9214C69.9013 52.796 69.9286 53.5613 70.2566 54.2173C70.8033 55.2012 71.8419 55.8845 73.3725 56.2672C74.2472 56.4859 75.3131 56.5952 76.5704 56.5952C90.9199 56.5952 126.753 41.9997 152.582 25.1083C152.582 24.671 152.527 24.2337 152.418 23.7963L152.254 23.9603Z" fill="url(#paint15_linear_2079_2331)"/>
<path d="M248.356 4.36289C254.095 6.24882 259.425 8.38075 264.099 10.7587C277.957 17.8104 284.024 28.388 282.138 42.1635C278.449 68.4026 245.732 105.301 194.483 140.642C142.989 176.311 82.8854 203.37 33.6052 213.128C21.1416 215.669 9.90802 215.833 0.232364 213.865L0.0683594 213.784C0.123024 214.166 0.150361 214.576 0.150361 215.013C4.52354 215.888 9.22472 216.325 14.2539 216.325C20.4037 216.325 26.9634 215.669 33.8512 214.275C83.2134 204.518 143.563 177.295 195.139 141.626C246.634 106.039 279.596 68.8946 283.286 42.3276C285.254 27.9781 278.94 16.9905 264.673 9.69271C261.147 7.97077 257.293 6.33082 253.275 4.77287C249.886 4.00757 246.415 3.32426 242.862 2.72295L248.356 4.36289Z" fill="url(#paint16_linear_2079_2331)"/>
<path d="M403.249 144.168C403.167 142.692 403.003 141.052 402.921 139.166C402.374 137.581 401.828 136.05 401.281 134.574L401.609 138.1C401.855 140.478 402.019 142.446 402.101 144.25C403.249 166.799 393.573 204.108 340.357 254.29C305.099 287.499 256.72 319.97 207.686 343.421C158.734 366.708 114.947 378.352 87.3962 375.236L86.8222 375.154L86.7402 375.4C87.2869 375.782 87.8062 376.138 88.2982 376.466C91.0314 376.739 93.9286 376.876 96.9899 376.876C158.324 376.876 270.66 321.528 341.095 255.11C370.696 227.313 405.463 185.413 403.249 144.168Z" fill="url(#paint17_linear_2079_2331)"/>
</g>
<defs>
<linearGradient id="paint0_linear_2079_2331" x1="39.5223" y1="43.3276" x2="257.879" y2="-34.5569" gradientUnits="userSpaceOnUse">
<stop stop-color="#076BFF"/>
<stop offset="1" stop-color="#DD65F5"/>
</linearGradient>
<linearGradient id="paint1_linear_2079_2331" x1="173.083" y1="0" x2="173.083" y2="78.7339" gradientUnits="userSpaceOnUse">
<stop stop-color="#DCDCDC"/>
<stop offset="1" stop-color="#D3D3D3"/>
</linearGradient>
<linearGradient id="paint2_linear_2079_2331" x1="225.079" y1="243.896" x2="225.079" y2="413.281" gradientUnits="userSpaceOnUse">
<stop stop-color="#DCDCDC"/>
<stop offset="1" stop-color="#D3D3D3"/>
</linearGradient>
<linearGradient id="paint3_linear_2079_2331" x1="224.35" y1="243.872" x2="224.35" y2="373.267" gradientUnits="userSpaceOnUse">
<stop stop-color="#DCDCDC"/>
<stop offset="1" stop-color="#D3D3D3"/>
</linearGradient>
<linearGradient id="paint4_linear_2079_2331" x1="206.634" y1="68.7301" x2="206.634" y2="256.176" gradientUnits="userSpaceOnUse">
<stop stop-color="#DCDCDC"/>
<stop offset="1" stop-color="#D3D3D3"/>
</linearGradient>
<linearGradient id="paint5_linear_2079_2331" x1="199.118" y1="68.7261" x2="199.118" y2="210.175" gradientUnits="userSpaceOnUse">
<stop stop-color="#DCDCDC"/>
<stop offset="1" stop-color="#D3D3D3"/>
</linearGradient>
<linearGradient id="paint6_linear_2079_2331" x1="560.981" y1="149.623" x2="41.4806" y2="327.153" gradientUnits="userSpaceOnUse">
<stop offset="0.002" stop-color="white" stop-opacity="0"/>
<stop offset="0.997" stop-color="#B8B8B8"/>
</linearGradient>
<linearGradient id="paint7_linear_2079_2331" x1="97.7342" y1="18.2204" x2="97.7342" y2="85.6813" gradientUnits="userSpaceOnUse">
<stop stop-color="#DCDCDC"/>
<stop offset="1" stop-color="#D3D3D3"/>
</linearGradient>
<linearGradient id="paint8_linear_2079_2331" x1="97.7395" y1="24.4522" x2="97.7395" y2="85.6813" gradientUnits="userSpaceOnUse">
<stop stop-color="#DCDCDC"/>
<stop offset="1" stop-color="#D3D3D3"/>
</linearGradient>
<linearGradient id="paint9_linear_2079_2331" x1="161.169" y1="0.304642" x2="161.169" y2="260.48" gradientUnits="userSpaceOnUse">
<stop stop-color="#DCDCDC"/>
<stop offset="1" stop-color="#D3D3D3"/>
</linearGradient>
<linearGradient id="paint10_linear_2079_2331" x1="233.597" y1="96.1176" x2="233.597" y2="398.687" gradientUnits="userSpaceOnUse">
<stop stop-color="#DCDCDC"/>
<stop offset="1" stop-color="#D3D3D3"/>
</linearGradient>
<linearGradient id="paint11_linear_2079_2331" x1="162.23" y1="3.78878" x2="162.23" y2="260.48" gradientUnits="userSpaceOnUse">
<stop stop-color="#DCDCDC"/>
<stop offset="1" stop-color="#D3D3D3"/>
</linearGradient>
<linearGradient id="paint12_linear_2079_2331" x1="162.23" y1="3.78878" x2="162.23" y2="260.48" gradientUnits="userSpaceOnUse">
<stop stop-color="#DCDCDC"/>
<stop offset="1" stop-color="#D3D3D3"/>
</linearGradient>
<linearGradient id="paint13_linear_2079_2331" x1="250.968" y1="137.772" x2="250.968" y2="411.039" gradientUnits="userSpaceOnUse">
<stop stop-color="#DCDCDC"/>
<stop offset="1" stop-color="#D3D3D3"/>
</linearGradient>
<linearGradient id="paint14_linear_2079_2331" x1="250.968" y1="137.772" x2="250.968" y2="411.039" gradientUnits="userSpaceOnUse">
<stop stop-color="#DCDCDC"/>
<stop offset="1" stop-color="#D3D3D3"/>
</linearGradient>
<linearGradient id="paint15_linear_2079_2331" x1="26.1389" y1="70.7643" x2="140.144" y2="2.7174" gradientUnits="userSpaceOnUse">
<stop stop-color="white" stop-opacity="0"/>
<stop offset="0.999" stop-color="white" stop-opacity="0.5"/>
</linearGradient>
<linearGradient id="paint16_linear_2079_2331" x1="-79.8206" y1="120.637" x2="192.326" y2="-106.581" gradientUnits="userSpaceOnUse">
<stop stop-color="white" stop-opacity="0"/>
<stop offset="0.999" stop-color="white" stop-opacity="0.5"/>
</linearGradient>
<linearGradient id="paint17_linear_2079_2331" x1="86.7796" y1="134.576" x2="403.338" y2="134.576" gradientUnits="userSpaceOnUse">
<stop stop-color="white" stop-opacity="0"/>
<stop offset="0.999" stop-color="white" stop-opacity="0.5"/>
</linearGradient>
</defs>
</svg>
