<svg width="160" height="294" viewBox="0 0 160 294" fill="none" xmlns="http://www.w3.org/2000/svg">
<g opacity="0.1">
<path d="M79.4319 16.1662C74.0082 13.6585 66.66 10.451 61.0614 8.29317C50.0974 4.91067 44.0906 2.98614 32.1352 1.35321C32.0769 1.35321 32.3685 1.41152 32.1352 1.35321C31.863 1.31433 31.5909 1.27545 31.3187 1.23657C31.0466 1.19769 30.7744 1.15881 30.5022 1.11993C29.7246 1.04217 28.9471 0.944976 28.1695 0.828338C17.4971 0.0118728 16.0975 -0.104767 7.23298 0.07019C4.66695 0.186828 1.28445 0.361781 -1.22327 0.595057C-22.568 2.98613 -38.5474 8.64308 -48.17 12.9587L-50.911 14.2417C-54.8767 16.1662 -54.935 16.2245 -56.9762 17.3326C-61.2918 19.6654 -61.3501 19.7237 -63.5662 21.065C-75.4633 28.5298 -82.8698 34.3617 -92.959 44.3343C-96.1082 47.7751 -100.249 52.4406 -103.223 55.9981C-84.911 36.5195 0.0597458 2.5779 61.6446 11.0925C70.2758 12.3172 73.1334 13.3669 79.4319 16.1662Z" fill="url(#paint0_linear_2027_1038)"/>
<path d="M79.4319 16.1662C74.0082 13.6585 66.66 10.451 61.0614 8.29317C50.0974 4.91067 44.0906 2.98614 32.1352 1.35321C32.0769 1.35321 32.3685 1.41152 32.1352 1.35321C31.863 1.31433 31.5909 1.27545 31.3187 1.23657C31.0466 1.19769 30.7744 1.15881 30.5022 1.11993C29.7246 1.04217 28.9471 0.944976 28.1695 0.828338C17.4971 0.0118728 16.0975 -0.104767 7.23298 0.07019C4.66695 0.186828 1.28445 0.361781 -1.22327 0.595057C-22.568 2.98613 -38.5474 8.64308 -48.17 12.9587L-50.911 14.2417C-54.8767 16.1662 -54.935 16.2245 -56.9762 17.3326C-61.2918 19.6654 -61.3501 19.7237 -63.5662 21.065C-75.4633 28.5298 -82.8698 34.3617 -92.959 44.3343C-96.1082 47.7751 -100.249 52.4406 -103.223 55.9981C-84.911 36.5195 0.0597458 2.5779 61.6446 11.0925C70.2758 12.3172 73.1334 13.3669 79.4319 16.1662Z" fill="url(#paint1_linear_2027_1038)"/>
<path d="M135.186 180.334C63.3371 149.483 -100.481 231.83 -97.4482 244.718C-97.3316 245.126 -97.04 245.535 -96.865 245.885L-90.5666 252.416C-79.5443 262.33 -79.1361 262.739 -72.0795 267.696C-60.0074 275.452 -59.3076 275.919 -51.3179 279.768L-45.661 282.334C-57.2081 274.869 -0.347153 245.943 46.483 235.387C64.6202 231.305 97.3371 225.59 110.517 236.787C125.33 254.982 73.6596 282.859 66.5447 280.993C66.2531 280.934 65.9032 280.701 65.6116 280.584C65.6116 279.418 65.6116 279.01 68.1776 276.969C72.1433 272.711 68.1776 280.584 65.6116 280.584C50.3904 287.174 39.6086 291.734 18.5482 293.298C19.248 293.823 20.8226 294.056 23.1554 293.881C25.6631 293.648 29.1039 293.356 31.6116 293.006C38.4933 291.957 38.4933 291.957 42.1091 291.257C47.591 290.032 47.591 290.032 50.3904 289.274C55.1142 287.933 55.1142 287.933 57.4469 287.174C61.6459 285.775 61.6459 285.775 63.7454 285.017C67.7111 283.442 67.7111 283.442 69.6939 282.625C73.6013 280.934 73.6013 280.934 75.5258 280.001C79.4915 278.077 79.5498 278.018 81.591 276.969C85.9066 274.577 85.9649 274.519 88.2393 273.178C97.8036 267.171 105.852 261.397 116.349 251.192C122.298 244.893 126.963 239.936 133.612 230.43C136.761 225.415 140.785 218.65 143.642 213.459C146.558 206.986 154.256 189.898 135.186 180.334Z" fill="url(#paint2_linear_2027_1038)"/>
<path d="M135.186 180.334C96.6952 163.771 31.7862 179.751 -19.7094 200.163C-26.0079 202.554 -44.0285 208.444 -30.5568 199.288C-17.0268 190.073 -20.0594 183.542 -37.8466 192.348C-55.6339 201.154 -108.529 232.063 -96.8654 245.885L-90.567 252.416C-81.4109 260.639 -79.5447 262.331 -75.1708 265.48C-52.3681 245.243 72.0263 188.207 129.879 213.109C134.603 215.442 137.46 218.3 139.151 221.332C140.784 218.591 142.301 215.85 143.642 213.459C146.558 206.986 154.256 189.898 135.186 180.334Z" fill="url(#paint3_linear_2027_1038)"/>
<path d="M155.711 114.026C151.687 99.4458 151.396 98.2794 147.488 88.9484C144.456 82.6499 140.14 74.4269 136.641 68.3618C133.025 63.6963 128.476 57.806 112.555 53.0822C21.8693 31.2126 -127.835 101.02 -132.034 118.749C-132.734 123.182 -133.726 129.13 -134.192 133.562C-135.009 148.375 -135.067 148.959 -134.484 157.648C-132.793 172.636 -132.734 173.219 -130.751 181.676L-130.576 182.2C-129.877 159.456 60.5931 77.4595 136.583 111.576C142.823 114.375 156.586 119.566 158.802 133.912C158.044 127.614 156.878 119.916 155.711 114.026Z" fill="url(#paint4_linear_2027_1038)"/>
<path d="M147.49 88.9483C144.458 82.6498 140.142 74.4268 136.643 68.3617C133.027 63.6962 128.478 57.8059 112.557 53.0821C68.818 42.5264 11.3155 53.3154 -36.9726 69.2948C-58.3173 75.5349 -34.5232 60.6636 -17.4358 56.0564C-8.80455 53.7236 -1.39803 47.2502 -17.844 50.4577C-44.9623 55.7648 -131.566 99.1541 -132.033 118.749C-132.732 123.181 -133.724 129.13 -134.19 133.562C-134.657 142.252 -134.89 146.043 -134.89 149.483C-105.556 122.423 38.7837 58.914 129.528 81.6001C138.451 84.2827 144.166 87.3737 148.132 90.4646C147.898 89.998 147.685 89.4926 147.49 88.9483Z" fill="url(#paint5_linear_2027_1038)"/>
<path style="mix-blend-mode:overlay" opacity="0.5" d="M155.713 114.025C151.689 99.4455 151.398 98.2791 147.49 88.9481C144.458 82.6496 140.142 74.4266 136.643 68.3615C133.027 63.6959 128.478 57.8057 112.557 53.0819C111.158 52.732 109.758 52.4209 108.358 52.1488C107.853 52.0321 107.367 51.9349 106.9 51.8572C105.928 51.6628 104.976 51.4878 104.043 51.3323C103.459 51.2157 102.876 51.1185 102.293 51.0407C101.399 50.8852 100.524 50.7491 99.6687 50.6325C99.0078 50.5547 98.3663 50.477 97.7442 50.3992C96.8889 50.2826 96.0529 50.166 95.2365 50.0493C94.5366 49.9716 93.8562 49.8938 93.1953 49.816C92.3788 49.7383 91.5429 49.6605 90.6876 49.5828C89.9878 49.5439 89.2879 49.4856 88.5881 49.4078C87.7717 49.3689 86.9552 49.3106 86.1387 49.2328C85.4 49.194 84.6807 49.1551 83.9809 49.1162C83.1644 49.0773 82.348 49.0384 81.5315 48.9996C80.7928 48.9996 80.0541 48.9801 79.3154 48.9412C78.4989 48.9412 77.663 48.9218 76.8077 48.8829C76.069 48.8829 75.3303 48.8829 74.5916 48.8829C73.7751 48.8829 72.9586 48.8829 72.1422 48.8829C71.3646 48.8829 70.587 48.9024 69.8094 48.9412C68.993 48.9412 68.1765 48.9412 67.36 48.9412C66.5824 48.9801 65.7854 49.019 64.9689 49.0579C64.1914 49.0968 63.3943 49.1357 62.5779 49.1745C61.7614 49.2134 60.9449 49.2523 60.1285 49.2912C59.3509 49.33 58.5538 49.3689 57.7374 49.4078C56.9209 49.4856 56.1044 49.5439 55.288 49.5828C54.4715 49.6605 53.6551 49.7383 52.8386 49.816C52.0221 49.8549 51.2057 49.9132 50.3892 49.991C49.5727 50.0687 48.7757 50.1465 47.9981 50.2243C47.1428 50.3409 46.2874 50.4381 45.4321 50.5159C44.6545 50.5936 43.8769 50.6908 43.0993 50.8075C42.2051 50.8852 41.3303 50.9824 40.475 51.099C39.6974 51.2157 38.9198 51.3129 38.1422 51.3906C37.2869 51.5073 36.4121 51.6434 35.5179 51.7989C34.7792 51.8766 34.021 51.9738 33.2434 52.0905C32.3492 52.246 31.455 52.3821 30.5608 52.4987C29.8221 52.6153 29.0834 52.7514 28.3447 52.9069C27.4115 53.0236 26.4979 53.1596 25.6037 53.3152C24.8649 53.4707 24.1263 53.6068 23.3875 53.7234C22.4933 53.8789 21.5796 54.0539 20.6465 54.2483C19.9467 54.3649 19.2469 54.501 18.5471 54.6565C17.5751 54.812 16.6031 54.987 15.6311 55.1814C14.9702 55.3369 14.3092 55.473 13.6483 55.5896C12.6763 55.8229 11.6849 56.0367 10.674 56.2311C10.0519 56.3866 9.42986 56.5227 8.80779 56.6393C7.79692 56.8726 6.78607 57.1059 5.77521 57.3392C5.19202 57.4558 4.60883 57.5919 4.02563 57.7474C2.93701 57.9807 1.86783 58.2334 0.818085 58.5056C0.312668 58.6222 -0.173325 58.7388 -0.639877 58.8555C-1.80626 59.1276 -2.95322 59.3998 -4.08072 59.6719C-4.43063 59.7886 -4.78053 59.8858 -5.13045 59.9635C-6.41347 60.2746 -7.69649 60.605 -8.97951 60.9549C-9.09615 60.9938 -9.21278 61.0133 -9.32942 61.0133C-18.7771 63.521 -28.0498 66.3203 -36.9726 69.2946C-58.3173 75.5347 -34.5232 60.6634 -17.4358 56.0562C-8.80455 53.7234 -1.39803 47.25 -17.844 50.4575C-44.9623 55.7646 -131.566 99.1539 -132.033 118.749C-132.732 123.181 -133.724 129.13 -134.19 133.562C-134.229 134.067 -134.268 134.553 -134.307 135.02C-134.307 135.098 -134.307 135.176 -134.307 135.253C-134.385 136.731 -134.462 138.053 -134.54 139.219C-134.54 139.219 -134.54 139.238 -134.54 139.277C-134.579 140.483 -134.618 141.571 -134.657 142.543C-134.696 142.854 -134.715 143.165 -134.715 143.476C-134.715 143.515 -134.715 143.535 -134.715 143.535C-134.715 143.807 -134.735 144.079 -134.774 144.351C-134.774 144.39 -134.774 144.409 -134.774 144.409C-134.774 144.682 -134.774 144.954 -134.774 145.226C-134.832 146.334 -134.832 147.267 -134.89 148.142C-134.89 148.142 -134.89 148.161 -134.89 148.2C-134.89 148.395 -134.89 148.589 -134.89 148.783C-134.89 148.822 -134.89 148.842 -134.89 148.842C-134.89 151.466 -134.715 153.74 -134.482 157.648C-132.791 172.636 -132.732 173.219 -130.749 181.675L-130.575 182.2C-129.875 159.456 60.595 77.4592 136.585 111.576C142.825 114.375 156.588 119.566 158.804 133.912C158.046 127.614 156.88 119.915 155.713 114.025Z" fill="url(#paint6_linear_2027_1038)"/>
<path d="M79.4311 16.1662C143.232 48.6499 -14.1709 158.873 -102.291 181.85C-113.605 184.766 -128.534 187.624 -130.576 182.2C-132.792 176.368 -138.449 147.734 -132.033 118.749C-131.684 136.478 -24.1434 94.4303 22.0452 44.4509C39.3076 25.7889 47.0057 3.04446 11.956 0.303471C39.366 -0.687952 61.2939 6.95184 79.4311 16.1662Z" fill="url(#paint7_linear_2027_1038)"/>
<path d="M136.64 68.3619C137.865 70.6364 139.323 73.669 139.906 76.1184C155.069 138.403 -63.2774 268.513 -96.8691 245.885C-84.3306 261.748 -55.346 279.885 -45.6651 282.334C5.42232 295.164 162.709 204.478 159.093 136.129C157.518 106.969 145.213 80.9005 136.64 68.3619Z" fill="url(#paint8_linear_2027_1038)"/>
<path d="M133.607 230.43C128.65 237.195 124.335 243.085 116.345 251.192C108.997 258.248 101.765 264.838 88.2353 273.178C83.8031 275.744 83.8031 275.744 81.587 276.969C77.563 279.068 77.563 279.068 75.5218 280.001C71.6144 281.809 71.6144 281.809 69.6899 282.626C65.7242 284.259 65.7242 284.259 63.7413 285.017C59.659 286.475 59.5424 286.533 57.4429 287.175C52.894 288.574 52.7774 288.633 50.3863 289.274C45.1376 290.615 44.9627 290.674 42.105 291.257C35.7483 292.423 35.34 292.54 31.6076 293.007C29.0999 293.298 25.6591 293.706 23.1514 293.881C47.7036 290.907 121.652 254.108 143.638 213.459C140.781 218.65 136.932 225.531 133.607 230.43Z" fill="url(#paint9_linear_2027_1038)"/>
<path d="M93.8369 32.9039C93.3314 30.3768 92.3595 28.0051 90.9209 25.789C90.882 25.789 90.8626 25.7696 90.8626 25.7307C88.4132 22.0566 84.6808 18.8491 79.4321 16.1664C68.4098 10.5678 55.9878 5.55233 41.8163 2.6947C45.782 3.97772 49.5728 5.49401 53.0719 7.3019C107.658 35.0617 -18.2522 133.562 -110.979 151.991C-121.418 154.091 -129.292 153.682 -134.89 152.458C-134.424 167.271 -131.916 178.76 -130.575 182.2C-128.533 187.624 -113.604 184.767 -102.29 181.851C-67.59 172.811 -22.1596 150.242 16.2726 124.231C29.9776 114.959 48.0565 107.436 23.1543 127.556C7.40814 140.211 23.1543 140.677 51.6139 117.816C99.7271 79.2092 97.7442 46.6089 93.8369 32.9039Z" fill="url(#paint10_linear_2027_1038)"/>
<path d="M93.8369 32.9039C93.3314 30.3768 92.3595 28.0051 90.9209 25.789C90.882 25.789 90.8626 25.7696 90.8626 25.7307C88.4132 22.0566 84.6808 18.8491 79.4321 16.1664C68.4098 10.5678 55.9878 5.55233 41.8163 2.6947C45.782 3.97772 49.5728 5.49401 53.0719 7.3019C107.658 35.0617 -18.2522 133.562 -110.979 151.991C-121.418 154.091 -129.292 153.682 -134.89 152.458C-134.424 167.271 -131.916 178.76 -130.575 182.2C-128.533 187.624 -113.604 184.767 -102.29 181.851C-67.59 172.811 -22.1596 150.242 16.2726 124.231C29.9776 114.959 48.0565 107.436 23.1543 127.556C7.40814 140.211 23.1543 140.677 51.6139 117.816C99.7271 79.2092 97.7442 46.6089 93.8369 32.9039Z" fill="url(#paint11_linear_2027_1038)"/>
<path d="M151.221 97.988C151.338 99.446 151.28 101.137 151.396 102.595C155.304 176.602 -10.6138 274.286 -72.8984 267.288C-62.1094 275.219 -51.0871 280.993 -45.6635 282.334C-40.1815 283.734 -33.4748 283.909 -25.8934 283.034C-21.5777 282.684 -19.1867 284.492 -24.3771 285.425C-30.209 286.417 -36.3324 286.591 -45.0803 285.833C-49.6292 285.425 -50.6789 296.856 -19.1283 290.324C93.7188 266.938 136.467 196.43 151.863 165.813C153.554 165.405 149.938 171.353 149.005 175.436C147.606 181.676 155.479 183.134 159.153 156.89C162.01 136.362 156.003 111.11 151.221 97.988Z" fill="url(#paint12_linear_2027_1038)"/>
<path d="M151.221 97.988C151.338 99.446 151.28 101.137 151.396 102.595C155.304 176.602 -10.6138 274.286 -72.8984 267.288C-62.1094 275.219 -51.0871 280.993 -45.6635 282.334C-40.1815 283.734 -33.4748 283.909 -25.8934 283.034C-21.5777 282.684 -19.1867 284.492 -24.3771 285.425C-30.209 286.417 -36.3324 286.591 -45.0803 285.833C-49.6292 285.425 -50.6789 296.856 -19.1283 290.324C93.7188 266.938 136.467 196.43 151.863 165.813C153.554 165.405 149.938 171.353 149.005 175.436C147.606 181.676 155.479 183.134 159.153 156.89C162.01 136.362 156.003 111.11 151.221 97.988Z" fill="url(#paint13_linear_2027_1038)"/>
<path d="M41.6391 3.10302C45.7215 4.44436 49.5122 5.96066 52.8364 7.65191C62.6923 12.6673 67.0079 20.1905 65.6666 29.9881C63.0422 48.6501 39.7729 74.8937 3.32358 100.029C-33.3007 125.398 -76.0485 144.643 -111.098 151.583C-119.963 153.391 -127.952 153.508 -134.834 152.108L-134.951 152.05C-134.912 152.322 -134.892 152.613 -134.892 152.924C-131.782 153.547 -128.438 153.858 -124.861 153.858C-120.488 153.858 -115.822 153.391 -110.923 152.4C-75.8153 145.46 -32.8925 126.098 3.79012 100.729C40.4144 75.4185 63.8586 49 66.483 30.1047C67.8827 19.8989 63.3921 12.0842 53.2446 6.89377C50.7369 5.66907 47.9959 4.50268 45.1383 3.39462C42.7278 2.85031 40.2589 2.36432 37.7318 1.93665L41.6391 3.10302Z" fill="url(#paint14_linear_2027_1038)"/>
<path d="M151.804 102.537C151.745 101.487 151.629 100.321 151.57 98.9794C151.182 97.8519 150.793 96.7633 150.404 95.7136L150.637 98.2213C150.812 99.9125 150.929 101.312 150.987 102.595C151.804 118.633 144.922 145.168 107.073 180.859C81.9958 204.478 47.5876 227.573 12.7129 244.252C-22.1036 260.815 -53.2459 269.096 -72.8411 266.88L-73.2493 266.821L-73.3076 266.996C-72.9188 267.269 -72.5495 267.521 -72.1996 267.755C-70.2556 267.949 -68.195 268.046 -66.0177 268.046C-22.3952 268.046 57.5018 228.681 107.598 181.442C128.651 161.672 153.378 131.871 151.804 102.537Z" fill="url(#paint15_linear_2027_1038)"/>
</g>
<defs>
<linearGradient id="paint0_linear_2027_1038" x1="-106.888" y1="30.8159" x2="48.4139" y2="-24.5779" gradientUnits="userSpaceOnUse">
<stop stop-color="#076BFF"/>
<stop offset="1" stop-color="#DD65F5"/>
</linearGradient>
<linearGradient id="paint1_linear_2027_1038" x1="-11.8956" y1="0" x2="-11.8956" y2="55.9981" gradientUnits="userSpaceOnUse">
<stop stop-color="#DCDCDC"/>
<stop offset="1" stop-color="#D3D3D3"/>
</linearGradient>
<linearGradient id="paint2_linear_2027_1038" x1="25.0859" y1="173.467" x2="25.0859" y2="293.938" gradientUnits="userSpaceOnUse">
<stop stop-color="#DCDCDC"/>
<stop offset="1" stop-color="#D3D3D3"/>
</linearGradient>
<linearGradient id="paint3_linear_2027_1038" x1="24.5664" y1="173.449" x2="24.5664" y2="265.48" gradientUnits="userSpaceOnUse">
<stop stop-color="#DCDCDC"/>
<stop offset="1" stop-color="#D3D3D3"/>
</linearGradient>
<linearGradient id="paint4_linear_2027_1038" x1="11.9656" y1="48.8831" x2="11.9656" y2="182.2" gradientUnits="userSpaceOnUse">
<stop stop-color="#DCDCDC"/>
<stop offset="1" stop-color="#D3D3D3"/>
</linearGradient>
<linearGradient id="paint5_linear_2027_1038" x1="6.62082" y1="48.8802" x2="6.62082" y2="149.483" gradientUnits="userSpaceOnUse">
<stop stop-color="#DCDCDC"/>
<stop offset="1" stop-color="#D3D3D3"/>
</linearGradient>
<linearGradient id="paint6_linear_2027_1038" x1="263.989" y1="106.416" x2="-105.496" y2="232.682" gradientUnits="userSpaceOnUse">
<stop offset="0.002" stop-color="white" stop-opacity="0"/>
<stop offset="0.997" stop-color="#B8B8B8"/>
</linearGradient>
<linearGradient id="paint7_linear_2027_1038" x1="-20.3711" y1="0.216675" x2="-20.3711" y2="185.262" gradientUnits="userSpaceOnUse">
<stop stop-color="#DCDCDC"/>
<stop offset="1" stop-color="#D3D3D3"/>
</linearGradient>
<linearGradient id="paint8_linear_2027_1038" x1="31.1425" y1="68.3619" x2="31.1425" y2="283.559" gradientUnits="userSpaceOnUse">
<stop stop-color="#DCDCDC"/>
<stop offset="1" stop-color="#D3D3D3"/>
</linearGradient>
<linearGradient id="paint9_linear_2027_1038" x1="83.3948" y1="213.459" x2="83.3948" y2="293.881" gradientUnits="userSpaceOnUse">
<stop stop-color="#DCDCDC"/>
<stop offset="1" stop-color="#D3D3D3"/>
</linearGradient>
<linearGradient id="paint10_linear_2027_1038" x1="-19.618" y1="2.6947" x2="-19.618" y2="185.262" gradientUnits="userSpaceOnUse">
<stop stop-color="#DCDCDC"/>
<stop offset="1" stop-color="#D3D3D3"/>
</linearGradient>
<linearGradient id="paint11_linear_2027_1038" x1="-19.618" y1="2.6947" x2="-19.618" y2="185.262" gradientUnits="userSpaceOnUse">
<stop stop-color="#DCDCDC"/>
<stop offset="1" stop-color="#D3D3D3"/>
</linearGradient>
<linearGradient id="paint12_linear_2027_1038" x1="43.4973" y1="97.988" x2="43.4973" y2="292.344" gradientUnits="userSpaceOnUse">
<stop stop-color="#DCDCDC"/>
<stop offset="1" stop-color="#D3D3D3"/>
</linearGradient>
<linearGradient id="paint13_linear_2027_1038" x1="43.4973" y1="97.988" x2="43.4973" y2="292.344" gradientUnits="userSpaceOnUse">
<stop stop-color="#DCDCDC"/>
<stop offset="1" stop-color="#D3D3D3"/>
</linearGradient>
<linearGradient id="paint14_linear_2027_1038" x1="-191.77" y1="85.8011" x2="1.78884" y2="-75.8039" gradientUnits="userSpaceOnUse">
<stop stop-color="white" stop-opacity="0"/>
<stop offset="0.999" stop-color="white" stop-opacity="0.5"/>
</linearGradient>
<linearGradient id="paint15_linear_2027_1038" x1="-73.2796" y1="95.7147" x2="151.867" y2="95.7147" gradientUnits="userSpaceOnUse">
<stop stop-color="white" stop-opacity="0"/>
<stop offset="0.999" stop-color="white" stop-opacity="0.5"/>
</linearGradient>
</defs>
</svg>
