<svg width="99" height="21" viewBox="0 0 99 21" fill="none" xmlns="http://www.w3.org/2000/svg">
<path d="M10.2711 16.6231C11.848 16.7192 13.766 15.8709 15.5626 14.684C15.2635 14.527 14.989 14.2552 14.7683 13.8217C13.6282 11.5792 14.3629 9.11291 13.6317 8.08539C12.8993 7.05786 11.007 5.31915 11.848 1.6203C11.848 1.6203 12.2136 0.145214 11.0245 1.43401C11.0245 1.43401 10.1461 -1.10258 9.85293 1.92024C9.85293 1.92024 8.27133 -0.0492776 8.81916 3.06024C8.81916 3.06024 6.76799 1.40941 8.22227 3.9378C8.22227 3.9378 6.67104 3.27348 8.04471 4.9911C8.04471 4.9911 6.70374 4.92666 8.35192 6.40057C8.35192 6.40057 6.23534 5.65541 9.2864 8.92545C9.2864 8.92545 8.53298 12.6864 10.2688 16.6231H10.2711Z" fill="#B3B3B3"/>
<path d="M16.7224 13.6963C16.7224 13.6963 14.9025 15.5217 12.6726 13.5487C10.4427 11.5756 10.1145 9.40459 8.86928 8.50009C7.62292 7.59559 4.73773 5.68816 3.96678 2.43219C3.96678 2.43219 3.77054 1.51128 3.08137 2.64543C3.08137 2.64543 2.14689 0.836422 2.04877 3.07307C2.04877 3.07307 0.884182 1.90495 1.45888 4.07599C1.45888 4.07599 -0.150751 3.3695 1.35726 5.20662C1.35726 5.20662 0.0887091 5.33785 1.74507 6.37357C1.74507 6.37357 -0.0865054 6.30913 2.41322 7.7561C2.41322 7.7561 0.135433 7.6155 4.54616 10.7567C4.54616 10.7567 5.54138 12.7086 9.39375 16.261C9.39375 16.261 7.63928 16.7379 7.31104 17.0671C7.31104 17.0671 7.86822 18.5305 10.0327 18.4813L10.9672 17.6588C10.9672 17.6588 15.476 17.5111 15.8206 15.4221C15.8206 15.4221 17.1651 14.4133 18.346 14.5117C19.527 14.6102 20.5315 14.7965 20.3353 14.6219C20.1391 14.4461 18.422 13.558 18.422 13.558C18.422 13.558 17.7223 12.418 16.7224 13.6951V13.6963Z" fill="white"/>
<path d="M8.85191 17.7243C8.85191 17.7243 7.56467 18.8842 7.11378 19.0975C6.6629 19.3107 6.08937 19.7712 6.08937 19.7712L5.85107 20.7085H6.30196C6.30196 20.7085 7.02384 20.289 7.40815 19.8122C7.79362 19.3353 9.7934 18.1672 9.7934 18.1672L8.85074 17.7231L8.85191 17.7243ZM7.31937 19.4185L8.8192 18.1602L9.09838 18.2914L7.31937 19.4173V19.4185Z" fill="white"/>
<path d="M26.9977 14.2935H24.7897V5.70674H31.5978V7.42409H26.9977V9.4481H30.6164V11.1654H26.9977V14.2935ZM32.4564 5.70674H37.6085C38.4671 5.70674 39.0886 5.90301 39.473 6.29555C39.8655 6.6799 40.0618 7.30142 40.0618 8.16009V9.2641C40.0618 9.94286 39.9473 10.4703 39.7183 10.8465C39.4975 11.2227 39.1418 11.4721 38.6511 11.5948L40.1845 14.2935H37.7925L36.3818 11.7174H34.6644V14.2935H32.4564V5.70674ZM37.8538 8.16009C37.8538 7.66942 37.6085 7.42409 37.1178 7.42409H34.6644V10.0001H37.1178C37.6085 10.0001 37.8538 9.75477 37.8538 9.2641V8.16009ZM48.0932 14.2935H41.2851V5.70674L48.0932 5.70674V7.42409H43.4931V9.08009H47.1118V10.7974H43.4931V12.5761H48.0932V14.2935ZM55.8797 14.2935H49.0716V5.70674H55.8797V7.42409H51.2796V9.08009H54.8983V10.7974H51.2796V12.5761H55.8797V14.2935ZM56.8581 5.70674H61.7648C62.5662 5.70674 63.155 5.89074 63.5312 6.25875C63.9074 6.61857 64.0955 7.17057 64.0955 7.91475C64.0955 8.40542 63.9892 8.80614 63.7766 9.11689C63.5639 9.41947 63.3022 9.6321 62.9915 9.75477C63.6539 9.93468 64.1037 10.3763 64.3408 11.0796C64.4226 11.3331 64.4635 11.6275 64.4635 11.9628C64.4635 12.7642 64.2754 13.353 63.8992 13.7292C63.523 14.1054 62.9342 14.2935 62.1328 14.2935H56.8581V5.70674ZM62.2555 11.5948C62.2555 11.1041 62.0101 10.8588 61.5195 10.8588H59.0661V12.5761H61.5195C62.0101 12.5761 62.2555 12.3308 62.2555 11.8401V11.5948ZM61.8875 8.16009C61.8875 7.66942 61.6421 7.42409 61.1515 7.42409H59.0661V9.14143H61.1515C61.6421 9.14143 61.8875 8.89609 61.8875 8.40542V8.16009ZM67.775 12.5761H72.2524V14.2935H65.567V5.70674H67.775V12.5761ZM78.634 8.03742C78.634 7.54675 78.3886 7.30142 77.898 7.30142H75.8126C75.3219 7.30142 75.0766 7.54675 75.0766 8.03742V11.9628C75.0766 12.4534 75.3219 12.6988 75.8126 12.6988H77.898C78.3886 12.6988 78.634 12.4534 78.634 11.9628V8.03742ZM80.842 11.9628C80.842 12.8214 80.6457 13.4471 80.2532 13.8396C79.8688 14.2239 79.2473 14.4161 78.3886 14.4161H75.3219C74.4633 14.4161 73.8377 14.2239 73.4451 13.8396C73.0608 13.4471 72.8686 12.8214 72.8686 11.9628V8.03742C72.8686 7.17875 73.0608 6.55724 73.4451 6.17288C73.8377 5.78034 74.4633 5.58408 75.3219 5.58408H78.3886C79.2473 5.58408 79.8688 5.78034 80.2532 6.17288C80.6457 6.55724 80.842 7.17875 80.842 8.03742V11.9628ZM88.6984 14.1708C86.8748 14.3343 85.3619 14.4161 84.1598 14.4161C83.3583 14.4161 82.7695 14.228 82.3933 13.8519C82.0172 13.4757 81.8291 12.8869 81.8291 12.0854V8.16009C81.8291 7.30142 82.0213 6.6799 82.4056 6.29555C82.7981 5.90301 83.4237 5.70674 84.2824 5.70674H88.6984V7.42409H84.7731C84.2824 7.42409 84.0371 7.66942 84.0371 8.16009V12.0854C84.0371 12.2735 84.0902 12.4248 84.1966 12.5393C84.311 12.6456 84.4542 12.6988 84.6259 12.6988C84.7976 12.6988 84.9857 12.6988 85.1902 12.6988C85.3946 12.6906 85.6072 12.6824 85.828 12.6742C86.0488 12.6661 86.2696 12.6579 86.4904 12.6497C86.7194 12.6415 87.0097 12.6252 87.3614 12.6006C87.7212 12.5761 88.1669 12.5475 88.6984 12.5148V14.1708ZM91.8892 14.2935H89.6812V5.70674H91.8892V9.08009H92.9932L94.9068 5.70674H97.2375L94.8332 9.93877L97.2253 14.2935H94.8946L92.9932 10.7974H91.8892V14.2935Z" fill="white"/>
</svg>
