<svg width="153" height="38" viewBox="0 0 153 38" fill="none" xmlns="http://www.w3.org/2000/svg">
<path d="M27.6317 2.08318C26.9328 1.76004 25.9859 1.34671 25.2644 1.06866C23.8516 0.632789 23.0776 0.384794 21.537 0.174374C21.5295 0.174374 21.5671 0.181889 21.537 0.174374C21.5019 0.169364 21.4669 0.164354 21.4318 0.159344C21.3967 0.154334 21.3617 0.149325 21.3266 0.144315C21.2264 0.134295 21.1262 0.12177 21.026 0.10674C19.6507 0.00152993 19.4704 -0.0135003 18.3281 0.00904469C17.9975 0.0240747 17.5616 0.0466192 17.2384 0.0766791C14.488 0.384794 12.4288 1.11375 11.1889 1.66986L10.8357 1.83519C10.3247 2.08318 10.3171 2.0907 10.0541 2.23348C9.498 2.53408 9.49049 2.5416 9.20492 2.71444C7.67186 3.67636 6.71746 4.42786 5.41736 5.71292C5.01156 6.1563 4.47799 6.7575 4.09473 7.21592C6.45443 4.70591 17.4038 0.332189 25.3396 1.42938C26.4518 1.58719 26.82 1.72246 27.6317 2.08318Z" fill="url(#paint0_linear_2031_1196)"/>
<path d="M27.6317 2.08318C26.9328 1.76004 25.9859 1.34671 25.2644 1.06866C23.8516 0.632789 23.0776 0.384794 21.537 0.174374C21.5295 0.174374 21.5671 0.181889 21.537 0.174374C21.5019 0.169364 21.4669 0.164354 21.4318 0.159344C21.3967 0.154334 21.3617 0.149325 21.3266 0.144315C21.2264 0.134295 21.1262 0.12177 21.026 0.10674C19.6507 0.00152993 19.4704 -0.0135003 18.3281 0.00904469C17.9975 0.0240747 17.5616 0.0466192 17.2384 0.0766791C14.488 0.384794 12.4288 1.11375 11.1889 1.66986L10.8357 1.83519C10.3247 2.08318 10.3171 2.0907 10.0541 2.23348C9.498 2.53408 9.49049 2.5416 9.20492 2.71444C7.67186 3.67636 6.71746 4.42786 5.41736 5.71292C5.01156 6.1563 4.47799 6.7575 4.09473 7.21592C6.45443 4.70591 17.4038 0.332189 25.3396 1.42938C26.4518 1.58719 26.82 1.72246 27.6317 2.08318Z" fill="url(#paint1_linear_2031_1196)"/>
<path d="M34.8161 23.2379C25.5577 19.2625 4.44807 29.8737 4.83885 31.5345C4.85388 31.5871 4.89145 31.6397 4.914 31.6848L5.72562 32.5265C7.14595 33.804 7.19855 33.8566 8.10787 34.4954C9.66347 35.4949 9.75365 35.555 10.7832 36.051L11.5122 36.3817C10.0242 35.4197 17.3513 31.6923 23.3858 30.3321C25.723 29.806 29.9389 29.0696 31.6373 30.5125C33.5461 32.8571 26.8878 36.4493 25.971 36.2088C25.9334 36.2013 25.8883 36.1712 25.8508 36.1562C25.8508 36.0059 25.8508 35.9533 26.1814 35.6903C26.6924 35.1417 26.1814 36.1562 25.8508 36.1562C23.8893 37.0054 22.5 37.5929 19.7862 37.7945C19.8763 37.8621 20.0792 37.8922 20.3798 37.8696C20.703 37.8396 21.1464 37.802 21.4695 37.7569C22.3563 37.6216 22.3563 37.6216 22.8222 37.5315C23.5286 37.3736 23.5286 37.3736 23.8893 37.2759C24.4981 37.1031 24.4981 37.1031 24.7987 37.0054C25.3397 36.825 25.3397 36.825 25.6103 36.7273C26.1213 36.5244 26.1213 36.5244 26.3768 36.4192C26.8803 36.2013 26.8803 36.2013 27.1283 36.0811C27.6393 35.8331 27.6468 35.8256 27.9099 35.6903C28.466 35.3822 28.4735 35.3747 28.7666 35.2018C29.999 34.4278 31.0361 33.6838 32.3888 32.3687C33.1553 31.557 33.7565 30.9183 34.6132 29.6933C35.019 29.047 35.5376 28.1753 35.9058 27.5065C36.2816 26.6723 37.2735 24.4704 34.8161 23.2379Z" fill="url(#paint2_linear_2031_1196)"/>
<path d="M34.8161 23.2378C29.8562 21.1035 21.492 23.1626 14.8563 25.7929C14.0447 26.101 11.7226 26.86 13.4585 25.6801C15.202 24.4928 14.8112 23.6511 12.5192 24.7858C10.2271 25.9206 3.41099 29.9036 4.91399 31.6846L5.72561 32.5263C6.90546 33.5859 7.14594 33.8038 7.70956 34.2096C10.6479 31.6019 26.6774 24.2523 34.1323 27.4612C34.741 27.7618 35.1092 28.13 35.3271 28.5208C35.5376 28.1676 35.7329 27.8144 35.9058 27.5063C36.2815 26.6721 37.2735 24.4702 34.8161 23.2378Z" fill="url(#paint3_linear_2031_1196)"/>
<path d="M37.4611 14.6936C36.9426 12.8148 36.905 12.6645 36.4015 11.4621C36.0107 10.6505 35.4546 9.5909 35.0037 8.80935C34.5378 8.20815 33.9516 7.44913 31.9 6.84042C20.2142 4.0223 0.923218 13.0177 0.382139 15.3023C0.291959 15.8734 0.164204 16.64 0.104084 17.2111C-0.00112541 19.1199 -0.0086404 19.1951 0.0665095 20.3148C0.284444 22.2461 0.29196 22.3213 0.547469 23.411L0.570013 23.4786C0.660193 20.5478 25.2041 9.98168 34.9962 14.378C35.8003 14.7387 37.5738 15.4075 37.8594 17.2562C37.7617 16.4446 37.6114 15.4526 37.4611 14.6936Z" fill="url(#paint4_linear_2031_1196)"/>
<path d="M36.4017 11.462C36.0109 10.6504 35.4548 9.59077 35.0039 8.80921C34.538 8.20802 33.9518 7.449 31.9002 6.84029C26.264 5.48007 18.8542 6.87035 12.6318 8.92945C9.88134 9.73356 12.9475 7.81724 15.1493 7.22355C16.2616 6.92295 17.216 6.08879 15.0967 6.50211C11.6023 7.18598 0.442514 12.7771 0.382394 15.3022C0.292214 15.8733 0.16446 16.6398 0.10434 17.211C0.0442199 18.3307 0.0141602 18.8192 0.0141602 19.2626C3.7942 15.7756 22.3938 7.59179 34.0871 10.5151C35.2369 10.8608 35.9734 11.2591 36.4844 11.6574C36.4543 11.5973 36.4268 11.5321 36.4017 11.462Z" fill="url(#paint5_linear_2031_1196)"/>
<path style="mix-blend-mode:overlay" opacity="0.5" d="M37.4613 14.6936C36.9428 12.8148 36.9052 12.6645 36.4017 11.4621C36.0109 10.6505 35.4548 9.59088 35.0039 8.80932C34.538 8.20812 33.9518 7.44911 31.9002 6.84039C31.7199 6.7953 31.5395 6.75522 31.3592 6.72015C31.294 6.70512 31.2314 6.6926 31.1713 6.68258C31.046 6.65753 30.9233 6.63498 30.8031 6.61494C30.7279 6.59991 30.6528 6.58739 30.5776 6.57737C30.4624 6.55733 30.3497 6.5398 30.2394 6.52477C30.1543 6.51475 30.0716 6.50472 29.9914 6.4947C29.8812 6.47967 29.7735 6.46465 29.6683 6.44962C29.5781 6.4396 29.4904 6.42957 29.4053 6.41955C29.3001 6.40953 29.1923 6.39951 29.0821 6.38949C28.9919 6.38448 28.9018 6.37697 28.8116 6.36695C28.7064 6.36194 28.6012 6.35442 28.496 6.3444C28.4008 6.33939 28.3081 6.33439 28.2179 6.32938C28.1127 6.32437 28.0075 6.31935 27.9023 6.31435C27.8071 6.31435 27.7119 6.31184 27.6167 6.30683C27.5115 6.30683 27.4038 6.30433 27.2936 6.29932C27.1984 6.29932 27.1032 6.29932 27.008 6.29932C26.9028 6.29932 26.7976 6.29932 26.6924 6.29932C26.5922 6.29932 26.492 6.30182 26.3918 6.30683C26.2866 6.30683 26.1813 6.30683 26.0761 6.30683C25.9759 6.31184 25.8732 6.31685 25.768 6.32186C25.6678 6.32687 25.5651 6.33188 25.4599 6.33689C25.3547 6.3419 25.2495 6.34691 25.1443 6.35192C25.0441 6.35693 24.9414 6.36194 24.8362 6.36695C24.731 6.37697 24.6257 6.38448 24.5205 6.38949C24.4153 6.39951 24.3101 6.40953 24.2049 6.41955C24.0997 6.42456 23.9945 6.43208 23.8893 6.4421C23.7841 6.45212 23.6814 6.46214 23.5812 6.47216C23.4709 6.48719 23.3607 6.49972 23.2505 6.50974C23.1503 6.51976 23.0501 6.53228 22.9499 6.54731C22.8347 6.55733 22.7219 6.56986 22.6117 6.58489C22.5115 6.59991 22.4113 6.61244 22.3111 6.62246C22.2009 6.63749 22.0882 6.65503 21.973 6.67507C21.8778 6.68509 21.7801 6.69761 21.6799 6.71264C21.5646 6.73268 21.4494 6.75021 21.3342 6.76524C21.239 6.78027 21.1438 6.79781 21.0486 6.81785C20.9284 6.83288 20.8106 6.85041 20.6954 6.87045C20.6002 6.89049 20.505 6.90803 20.4098 6.92306C20.2946 6.9431 20.1769 6.96564 20.0566 6.99069C19.9665 7.00572 19.8763 7.02326 19.7861 7.0433C19.6608 7.06334 19.5356 7.08588 19.4103 7.11093C19.3252 7.13097 19.24 7.14851 19.1548 7.16354C19.0296 7.1936 18.9018 7.22115 18.7716 7.2462C18.6914 7.26624 18.6112 7.28378 18.5311 7.29881C18.4008 7.32887 18.2706 7.35893 18.1403 7.38899C18.0652 7.40402 17.99 7.42155 17.9149 7.44159C17.7746 7.47165 17.6368 7.50422 17.5015 7.53929C17.4364 7.55432 17.3738 7.56935 17.3137 7.58438C17.1634 7.61945 17.0156 7.65452 16.8703 7.68959C16.8252 7.70462 16.7801 7.71714 16.735 7.72716C16.5697 7.76724 16.4043 7.80983 16.239 7.85492C16.224 7.85993 16.209 7.86243 16.1939 7.86243C14.9765 8.18558 13.7816 8.5463 12.6318 8.92956C9.88134 9.73367 12.9475 7.81734 15.1493 7.22366C16.2616 6.92306 17.216 6.0889 15.0967 6.50222C11.6023 7.18608 0.442514 12.7772 0.382394 15.3023C0.292214 15.8734 0.16446 16.6399 0.10434 17.2111C0.0993298 17.2762 0.09432 17.3388 0.08931 17.399C0.08931 17.409 0.08931 17.419 0.08931 17.429C0.07929 17.6194 0.0692705 17.7897 0.0592505 17.94C0.0592505 17.94 0.0592505 17.9425 0.0592505 17.9475C0.0542405 18.1029 0.0492296 18.2431 0.0442196 18.3684C0.0392097 18.4085 0.0367053 18.4485 0.0367053 18.4886C0.0367053 18.4936 0.0367053 18.4961 0.0367053 18.4961C0.0367053 18.5312 0.0341999 18.5663 0.0291899 18.6013C0.0291899 18.6064 0.0291899 18.6089 0.0291899 18.6089C0.0291899 18.6439 0.0291899 18.679 0.0291899 18.7141C0.0216749 18.8569 0.0216751 18.9771 0.0141602 19.0898C0.0141602 19.0898 0.0141602 19.0923 0.0141602 19.0973C0.0141602 19.1224 0.0141602 19.1474 0.0141602 19.1725C0.0141602 19.1775 0.0141602 19.18 0.0141602 19.18C0.0141602 19.5182 0.0367049 19.8113 0.0667648 20.3148C0.284699 22.2461 0.292215 22.3213 0.547725 23.4109L0.570269 23.4786C0.660449 20.5477 25.2044 9.98166 34.9964 14.3779C35.8005 14.7386 37.5741 15.4075 37.8596 17.2562C37.7619 16.4445 37.6116 15.4526 37.4613 14.6936Z" fill="url(#paint6_linear_2031_1196)"/>
<path d="M4.09443 7.21598C4.48521 6.75757 5.01126 6.14885 5.41706 5.71298C6.5894 4.56319 7.49872 3.78163 9.20462 2.7145C9.76824 2.38385 9.76824 2.38385 10.0538 2.23355C10.5799 1.96301 10.5799 1.96301 10.8354 1.83525L11.1886 1.66992C9.1445 2.62433 9.46764 2.88735 9.51273 2.91741C9.73818 3.05268 10.8354 2.76711 11.7898 2.23355C13.2101 1.57223 14.2697 1.75259 13.9165 2.59426C12.902 5.03664 4.53781 8.74152 3.95164 7.65937C3.87649 7.5241 4.01176 7.32871 4.09443 7.21598Z" fill="url(#paint7_linear_2031_1196)"/>
<path d="M6.49171 4.94612C6.44662 4.87097 6.47668 4.76576 6.52177 4.67558C6.15353 4.99872 5.80033 5.3369 5.41706 5.71265C5.01126 6.14851 4.48521 6.75723 4.09443 7.21564C4.01176 7.32837 3.87649 7.52376 3.95164 7.65903C4.53781 8.74119 12.902 5.0363 13.9165 2.59393C13.9766 2.45866 13.9917 2.33842 13.9841 2.24072C11.136 4.10444 6.89752 5.69762 6.49171 4.94612Z" fill="url(#paint8_linear_2031_1196)"/>
<path d="M27.6316 2.08309C35.853 6.26894 15.5701 20.4723 4.21491 23.4332C2.757 23.8089 0.833166 24.1772 0.570142 23.4783C0.284572 22.7268 -0.444382 19.0369 0.382267 15.302C0.427357 17.5865 14.285 12.1682 20.2369 5.72786C22.4613 3.32307 23.4533 0.392221 18.9368 0.0390166C22.4688 -0.0887382 25.2945 0.895726 27.6316 2.08309Z" fill="url(#paint9_linear_2031_1196)"/>
<path d="M35.0036 8.80908C35.1614 9.10217 35.3493 9.49294 35.4244 9.80857C37.3783 17.8346 9.24221 34.6005 4.91357 31.6847C6.5293 33.7288 10.2642 36.0659 11.5117 36.3816C18.0949 38.0349 38.3628 26.3491 37.8969 17.5415C37.6939 13.784 36.1083 10.4248 35.0036 8.80908Z" fill="url(#paint10_linear_2031_1196)"/>
<path d="M34.6128 29.6932C33.974 30.5649 33.4179 31.324 32.3883 32.3685C31.4415 33.2779 30.5096 34.127 28.7661 35.2017C28.195 35.5324 28.195 35.5324 27.9094 35.6902C27.3909 35.9607 27.3909 35.9607 27.1279 36.0809C26.6243 36.3139 26.6243 36.3139 26.3764 36.4191C25.8653 36.6295 25.8653 36.6295 25.6098 36.7272C25.0838 36.9151 25.0687 36.9226 24.7982 37.0053C24.212 37.1856 24.197 37.1932 23.8889 37.2758C23.2125 37.4487 23.19 37.4562 22.8218 37.5313C22.0026 37.6816 21.95 37.6967 21.4691 37.7568C21.1459 37.7944 20.7025 37.847 20.3794 37.8695C23.5432 37.4862 33.0722 32.7443 35.9054 27.5063C35.5371 28.1752 35.0411 29.0619 34.6128 29.6932Z" fill="url(#paint11_linear_2031_1196)"/>
<path d="M29.4879 4.23993C29.4228 3.91428 29.2976 3.60867 29.1122 3.3231C29.1072 3.3231 29.1047 3.3206 29.1047 3.31559C28.789 2.84214 28.3081 2.42882 27.6317 2.08313C26.2114 1.36169 24.6107 0.715402 22.7846 0.347168C23.2956 0.512498 23.7841 0.707887 24.235 0.940852C31.269 4.51799 15.0441 17.2108 3.0953 19.5855C1.75012 19.8561 0.735599 19.8035 0.0141602 19.6457C0.0742801 21.5545 0.397424 23.0349 0.570269 23.4783C0.833293 24.1772 2.75713 23.809 4.21504 23.4332C8.68645 22.2684 14.5406 19.3601 19.493 16.0084C21.259 14.8135 23.5887 13.8441 20.3798 16.4368C18.3507 18.0675 20.3798 18.1276 24.0471 15.1818C30.247 10.2068 29.9914 6.00595 29.4879 4.23993Z" fill="url(#paint12_linear_2031_1196)"/>
<path d="M29.4879 4.23993C29.4228 3.91428 29.2976 3.60867 29.1122 3.3231C29.1072 3.3231 29.1047 3.3206 29.1047 3.31559C28.789 2.84214 28.3081 2.42882 27.6317 2.08313C26.2114 1.36169 24.6107 0.715402 22.7846 0.347168C23.2956 0.512498 23.7841 0.707887 24.235 0.940852C31.269 4.51799 15.0441 17.2108 3.0953 19.5855C1.75012 19.8561 0.735599 19.8035 0.0141602 19.6457C0.0742801 21.5545 0.397424 23.0349 0.570269 23.4783C0.833293 24.1772 2.75713 23.809 4.21504 23.4332C8.68645 22.2684 14.5406 19.3601 19.493 16.0084C21.259 14.8135 23.5887 13.8441 20.3798 16.4368C18.3507 18.0675 20.3798 18.1276 24.0471 15.1818C30.247 10.2068 29.9914 6.00595 29.4879 4.23993Z" fill="url(#paint13_linear_2031_1196)"/>
<path d="M36.8825 12.6265C36.8976 12.8143 36.8901 13.0323 36.9051 13.2201C37.4086 22.7567 16.0284 35.3443 8.00244 34.4425C9.39271 35.4645 10.813 36.2085 11.5119 36.3813C12.2183 36.5617 13.0826 36.5842 14.0595 36.4715C14.6156 36.4264 14.9237 36.6594 14.2549 36.7796C13.5034 36.9074 12.7143 36.9299 11.5871 36.8322C11.0009 36.7796 10.8657 38.2526 14.9313 37.4109C29.4728 34.3974 34.9812 25.3118 36.9652 21.3664C37.1831 21.3138 36.7172 22.0803 36.597 22.6064C36.4166 23.4105 37.4311 23.5983 37.9046 20.2166C38.2728 17.5713 37.4988 14.3173 36.8825 12.6265Z" fill="url(#paint14_linear_2031_1196)"/>
<path d="M36.8825 12.6265C36.8976 12.8143 36.8901 13.0323 36.9051 13.2201C37.4086 22.7567 16.0284 35.3443 8.00244 34.4425C9.39271 35.4645 10.813 36.2085 11.5119 36.3813C12.2183 36.5617 13.0826 36.5842 14.0595 36.4715C14.6156 36.4264 14.9237 36.6594 14.2549 36.7796C13.5034 36.9074 12.7143 36.9299 11.5871 36.8322C11.0009 36.7796 10.8657 38.2526 14.9313 37.4109C29.4728 34.3974 34.9812 25.3118 36.9652 21.3664C37.1831 21.3138 36.7172 22.0803 36.597 22.6064C36.4166 23.4105 37.4311 23.5983 37.9046 20.2166C38.2728 17.5713 37.4988 14.3173 36.8825 12.6265Z" fill="url(#paint15_linear_2031_1196)"/>
<path d="M13.9541 2.19569C11.399 3.86402 7.76178 5.3069 6.74726 5.05891C6.64205 5.02885 6.57191 4.98375 6.53684 4.92363C6.50678 4.86852 6.5168 4.79337 6.5669 4.69818L6.58945 4.65309L6.5669 4.63807C6.52181 4.67815 6.47672 4.71823 6.43163 4.75831C6.40658 4.83847 6.40909 4.9086 6.43915 4.96872C6.48925 5.0589 6.58443 5.12153 6.72471 5.1566C6.80487 5.17664 6.90257 5.18666 7.0178 5.18666C8.33292 5.18666 11.617 3.84899 13.9842 2.3009C13.9842 2.26082 13.9792 2.22074 13.9692 2.18066L13.9541 2.19569Z" fill="url(#paint16_linear_2031_1196)"/>
<path d="M22.7617 0.399811C23.2878 0.572656 23.7763 0.768046 24.2046 0.985981C25.4746 1.63227 26.0308 2.6017 25.8579 3.86422C25.5197 6.26902 22.5212 9.65076 17.8244 12.8897C13.105 16.1587 7.59648 18.6387 3.07998 19.533C1.9377 19.7659 0.908147 19.781 0.0213785 19.6006L0.00634766 19.5931C0.0113576 19.6282 0.0138631 19.6657 0.0138631 19.7058C0.414662 19.786 0.845523 19.8261 1.30644 19.8261C1.87007 19.8261 2.47126 19.7659 3.10252 19.6382C7.62655 18.7439 13.1576 16.2489 17.8845 12.9799C22.6039 9.7184 25.6249 6.31411 25.9631 3.87925C26.1435 2.56413 25.5648 1.55712 24.2572 0.888287C23.9341 0.730472 23.5809 0.580171 23.2126 0.437386C22.902 0.367247 22.5839 0.304622 22.2582 0.249512L22.7617 0.399811Z" fill="url(#paint17_linear_2031_1196)"/>
<path d="M36.9576 13.2128C36.95 13.0775 36.935 12.9272 36.9275 12.7543C36.8774 12.609 36.8273 12.4688 36.7772 12.3335L36.8073 12.6566C36.8298 12.8746 36.8448 13.0549 36.8523 13.2203C36.9576 15.2869 36.0708 18.7062 31.1936 23.3054C27.9621 26.3489 23.5283 29.3249 19.0343 31.4742C14.5479 33.6084 10.5349 34.6756 8.00983 34.39L7.95722 34.3825L7.94971 34.405C7.99981 34.4401 8.0474 34.4726 8.09249 34.5027C8.34299 34.5278 8.60852 34.5403 8.88908 34.5403C14.5103 34.5403 24.8058 29.4677 31.2612 23.3805C33.9741 20.8329 37.1605 16.9928 36.9576 13.2128Z" fill="url(#paint18_linear_2031_1196)"/>
<path d="M54.316 25.9145C54.8573 25.9145 55.296 25.7931 55.632 25.5505C55.9867 25.2891 56.192 24.9531 56.248 24.5425H61.736C61.4187 25.9425 60.588 27.0998 59.244 28.0145C57.9 28.9291 56.276 29.3865 54.372 29.3865C51.964 29.3865 50.0787 28.6771 48.716 27.2585C47.372 25.8211 46.7 23.9825 46.7 21.7425C46.7 19.5771 47.372 17.7945 48.716 16.3945C50.0787 14.9758 51.936 14.2665 54.288 14.2665C56.0053 14.2665 57.4613 14.6491 58.656 15.4145C59.8693 16.1798 60.756 17.2625 61.316 18.6625C61.7267 19.6891 61.932 21.1078 61.932 22.9185H51.992C52.0853 24.9158 52.86 25.9145 54.316 25.9145ZM54.288 17.6265C53.0187 17.6265 52.2627 18.4478 52.02 20.0905H56.528C56.3973 18.4478 55.6507 17.6265 54.288 17.6265ZM69.205 29.3305C67.581 29.3305 66.3023 28.8265 65.369 27.8185C64.4543 26.8105 63.997 25.3638 63.997 23.4785V14.7145H69.373V22.8065C69.373 24.3931 69.933 25.1865 71.053 25.1865C72.341 25.1865 72.985 24.0758 72.985 21.8545V14.7145H78.361V28.9385H73.377V27.3145H73.321C72.313 28.6585 70.941 29.3305 69.205 29.3305ZM90.5749 14.4905C91.0976 14.4905 91.5642 14.5465 91.9749 14.6585V19.2505C91.4896 19.1385 90.9482 19.0825 90.3509 19.0825C89.1936 19.0825 88.3069 19.4371 87.6909 20.1465C87.0749 20.8558 86.7669 21.8731 86.7669 23.1985V28.9385H81.3909V14.7145H86.3749V16.6465H86.4309C87.4202 15.2091 88.8016 14.4905 90.5749 14.4905ZM94.8482 16.3105C96.2855 14.9478 98.2175 14.2665 100.644 14.2665C103.071 14.2665 105.003 14.9478 106.44 16.3105C107.878 17.6731 108.596 19.5118 108.596 21.8265C108.596 24.1411 107.878 25.9798 106.44 27.3425C105.003 28.7051 103.071 29.3865 100.644 29.3865C98.2175 29.3865 96.2855 28.7051 94.8482 27.3425C93.4109 25.9798 92.6922 24.1411 92.6922 21.8265C92.6922 19.5118 93.4109 17.6731 94.8482 16.3105ZM102.324 19.2225C101.932 18.5878 101.372 18.2705 100.644 18.2705C99.9162 18.2705 99.3469 18.5878 98.9362 19.2225C98.5442 19.8385 98.3482 20.7065 98.3482 21.8265C98.3482 22.9465 98.5442 23.8238 98.9362 24.4585C99.3469 25.0745 99.9162 25.3825 100.644 25.3825C101.372 25.3825 101.932 25.0745 102.324 24.4585C102.735 23.8238 102.94 22.9465 102.94 21.8265C102.94 20.7065 102.735 19.8385 102.324 19.2225ZM116.189 9.00248V28.9385H110.813V9.00248H116.189ZM124.583 14.7145V28.9385H119.207V14.7145H124.583ZM124.583 9.00248V12.9505H119.207V9.00248H124.583ZM135.862 12.5585C135.171 12.5585 134.658 12.7171 134.322 13.0345C134.005 13.3331 133.846 13.8278 133.846 14.5185V14.7145H136.422V18.5505H133.846V28.9385H128.47V18.5505H126.286V14.7145H128.47V13.9025C128.47 10.4491 130.337 8.72247 134.07 8.72247C134.873 8.72247 135.703 8.81581 136.562 9.00248V12.6425C136.431 12.5865 136.198 12.5585 135.862 12.5585ZM144.632 25.9145C145.174 25.9145 145.612 25.7931 145.948 25.5505C146.303 25.2891 146.508 24.9531 146.564 24.5425H152.052C151.735 25.9425 150.904 27.0998 149.56 28.0145C148.216 28.9291 146.592 29.3865 144.688 29.3865C142.28 29.3865 140.395 28.6771 139.032 27.2585C137.688 25.8211 137.016 23.9825 137.016 21.7425C137.016 19.5771 137.688 17.7945 139.032 16.3945C140.395 14.9758 142.252 14.2665 144.604 14.2665C146.322 14.2665 147.778 14.6491 148.972 15.4145C150.186 16.1798 151.072 17.2625 151.632 18.6625C152.043 19.6891 152.248 21.1078 152.248 22.9185H142.308C142.402 24.9158 143.176 25.9145 144.632 25.9145ZM144.604 17.6265C143.335 17.6265 142.579 18.4478 142.336 20.0905H146.844C146.714 18.4478 145.967 17.6265 144.604 17.6265Z" fill="white"/>
<defs>
<linearGradient id="paint0_linear_2031_1196" x1="3.62241" y1="3.97095" x2="23.6347" y2="-3.16712" gradientUnits="userSpaceOnUse">
<stop stop-color="#076BFF"/>
<stop offset="1" stop-color="#DD65F5"/>
</linearGradient>
<linearGradient id="paint1_linear_2031_1196" x1="15.8632" y1="0" x2="15.8632" y2="7.21592" gradientUnits="userSpaceOnUse">
<stop stop-color="#DCDCDC"/>
<stop offset="1" stop-color="#D3D3D3"/>
</linearGradient>
<linearGradient id="paint2_linear_2031_1196" x1="20.6286" y1="22.353" x2="20.6286" y2="37.877" gradientUnits="userSpaceOnUse">
<stop stop-color="#DCDCDC"/>
<stop offset="1" stop-color="#D3D3D3"/>
</linearGradient>
<linearGradient id="paint3_linear_2031_1196" x1="20.5617" y1="22.3506" x2="20.5617" y2="34.2096" gradientUnits="userSpaceOnUse">
<stop stop-color="#DCDCDC"/>
<stop offset="1" stop-color="#D3D3D3"/>
</linearGradient>
<linearGradient id="paint4_linear_2031_1196" x1="18.938" y1="6.29932" x2="18.938" y2="23.4786" gradientUnits="userSpaceOnUse">
<stop stop-color="#DCDCDC"/>
<stop offset="1" stop-color="#D3D3D3"/>
</linearGradient>
<linearGradient id="paint5_linear_2031_1196" x1="18.2493" y1="6.29883" x2="18.2493" y2="19.2626" gradientUnits="userSpaceOnUse">
<stop stop-color="#DCDCDC"/>
<stop offset="1" stop-color="#D3D3D3"/>
</linearGradient>
<linearGradient id="paint6_linear_2031_1196" x1="51.4138" y1="13.7131" x2="3.80187" y2="29.9836" gradientUnits="userSpaceOnUse">
<stop offset="0.002" stop-color="white" stop-opacity="0"/>
<stop offset="0.997" stop-color="#B8B8B8"/>
</linearGradient>
<linearGradient id="paint7_linear_2031_1196" x1="3.92969" y1="4.76048" x2="13.9786" y2="4.76048" gradientUnits="userSpaceOnUse">
<stop stop-color="#78B72A"/>
<stop offset="1" stop-color="#00953E"/>
</linearGradient>
<linearGradient id="paint8_linear_2031_1196" x1="3.92969" y1="5.04578" x2="13.9796" y2="5.04578" gradientUnits="userSpaceOnUse">
<stop stop-color="#78B72A"/>
<stop offset="1" stop-color="#00953E"/>
</linearGradient>
<linearGradient id="paint9_linear_2031_1196" x1="0" y1="11.9471" x2="29.5235" y2="11.9471" gradientUnits="userSpaceOnUse">
<stop stop-color="#78B72A"/>
<stop offset="1" stop-color="#00953E"/>
</linearGradient>
<linearGradient id="paint10_linear_2031_1196" x1="4.91357" y1="22.6705" x2="37.8839" y2="22.6705" gradientUnits="userSpaceOnUse">
<stop stop-color="#78B72A"/>
<stop offset="1" stop-color="#00953E"/>
</linearGradient>
<linearGradient id="paint11_linear_2031_1196" x1="20.3794" y1="32.6866" x2="35.8955" y2="32.6866" gradientUnits="userSpaceOnUse">
<stop stop-color="#78B72A"/>
<stop offset="1" stop-color="#00953E"/>
</linearGradient>
<linearGradient id="paint12_linear_2031_1196" x1="-9.51958" y1="12.9312" x2="16.7801" y2="-9.02675" gradientUnits="userSpaceOnUse">
<stop stop-color="#13D2FD"/>
<stop offset="1" stop-color="#F5CAE6"/>
</linearGradient>
<linearGradient id="paint13_linear_2031_1196" x1="0.0141602" y1="12.1069" x2="29.7033" y2="12.1069" gradientUnits="userSpaceOnUse">
<stop stop-color="#78B72A"/>
<stop offset="1" stop-color="#00953E"/>
</linearGradient>
<linearGradient id="paint14_linear_2031_1196" x1="-0.999913" y1="27.1671" x2="20.0328" y2="4.58602" gradientUnits="userSpaceOnUse">
<stop stop-color="#65CDFD"/>
<stop offset="1" stop-color="#F5CAE6"/>
</linearGradient>
<linearGradient id="paint15_linear_2031_1196" x1="8.00244" y1="25.1455" x2="37.981" y2="25.1455" gradientUnits="userSpaceOnUse">
<stop stop-color="#78B72A"/>
<stop offset="1" stop-color="#00953E"/>
</linearGradient>
<linearGradient id="paint16_linear_2031_1196" x1="2.39578" y1="6.48525" x2="12.8442" y2="0.248791" gradientUnits="userSpaceOnUse">
<stop stop-color="white" stop-opacity="0"/>
<stop offset="0.999" stop-color="white" stop-opacity="0.5"/>
</linearGradient>
<linearGradient id="paint17_linear_2031_1196" x1="-7.31543" y1="11.0563" x2="17.6266" y2="-9.76814" gradientUnits="userSpaceOnUse">
<stop stop-color="white" stop-opacity="0"/>
<stop offset="0.999" stop-color="white" stop-opacity="0.5"/>
</linearGradient>
<linearGradient id="paint18_linear_2031_1196" x1="7.95331" y1="12.3336" x2="36.9657" y2="12.3336" gradientUnits="userSpaceOnUse">
<stop stop-color="white" stop-opacity="0"/>
<stop offset="0.999" stop-color="white" stop-opacity="0.5"/>
</linearGradient>
</defs>
</svg>
