<svg width="473" height="118" viewBox="0 0 473 118" fill="none" xmlns="http://www.w3.org/2000/svg">
<path d="M85.7355 6.71288C83.5805 5.71649 80.6608 4.44204 78.4363 3.58468C74.08 2.24071 71.6933 1.47603 66.9431 0.82722C66.9199 0.82722 67.0358 0.850392 66.9431 0.82722C66.8349 0.811772 66.7268 0.796325 66.6187 0.780877C66.5105 0.765429 66.4024 0.749982 66.2943 0.734534C65.9853 0.703638 65.6763 0.665018 65.3674 0.618675C61.1269 0.294268 60.5708 0.247924 57.0487 0.317439C56.0291 0.363783 54.6852 0.433297 53.6888 0.525985C45.2079 1.47603 38.8588 3.72371 35.0354 5.43843L33.9463 5.9482C32.3706 6.71288 32.3475 6.73605 31.5364 7.17632C29.8217 8.10319 29.7985 8.12636 28.918 8.65932C24.1909 11.6253 21.2481 13.9425 17.2394 17.9049C15.9881 19.272 14.3429 21.1258 13.1611 22.5393C20.4371 14.7999 54.1985 1.31383 78.668 4.69692C82.0975 5.18353 83.2329 5.60063 85.7355 6.71288Z" fill="url(#paint0_linear_2066_454)"/>
<path d="M85.7355 6.71288C83.5805 5.71649 80.6608 4.44204 78.4363 3.58468C74.08 2.24071 71.6933 1.47603 66.9431 0.82722C66.9199 0.82722 67.0358 0.850392 66.9431 0.82722C66.8349 0.811772 66.7268 0.796325 66.6187 0.780877C66.5105 0.765429 66.4024 0.749982 66.2943 0.734534C65.9853 0.703638 65.6763 0.665018 65.3674 0.618675C61.1269 0.294268 60.5708 0.247924 57.0487 0.317439C56.0291 0.363783 54.6852 0.433297 53.6888 0.525985C45.2079 1.47603 38.8588 3.72371 35.0354 5.43843L33.9463 5.9482C32.3706 6.71288 32.3475 6.73605 31.5364 7.17632C29.8217 8.10319 29.7985 8.12636 28.918 8.65932C24.1909 11.6253 21.2481 13.9425 17.2394 17.9049C15.9881 19.272 14.3429 21.1258 13.1611 22.5393C20.4371 14.7999 54.1985 1.31383 78.668 4.69692C82.0975 5.18353 83.2329 5.60063 85.7355 6.71288Z" fill="url(#paint1_linear_2066_454)"/>
<path d="M107.887 71.9418C79.3394 59.6838 14.2496 92.4026 15.4545 97.5235C15.5008 97.6857 15.6167 97.8479 15.6862 97.987L18.1888 100.582C22.5683 104.521 22.7305 104.684 25.5343 106.653C30.3308 109.735 30.6089 109.92 33.7834 111.45L36.0311 112.469C31.4431 109.503 54.0357 98.0101 72.6427 93.816C79.8492 92.194 92.8486 89.9232 98.0854 94.3722C103.971 101.602 83.4408 112.678 80.6138 111.936C80.498 111.913 80.3589 111.821 80.2431 111.774C80.2431 111.311 80.2431 111.149 81.2626 110.338C82.8383 108.646 81.2626 111.774 80.2431 111.774C74.1952 114.393 69.9113 116.204 61.5434 116.826C61.8214 117.034 62.4471 117.127 63.3739 117.057C64.3703 116.965 65.7375 116.849 66.7339 116.71C69.4681 116.293 69.4681 116.293 70.9048 116.015C73.083 115.528 73.083 115.528 74.1952 115.227C76.0721 114.694 76.0721 114.694 76.999 114.393C78.6674 113.837 78.6674 113.837 79.5016 113.535C81.0773 112.91 81.0773 112.91 81.8651 112.585C83.4176 111.913 83.4176 111.913 84.1823 111.543C85.758 110.778 85.7812 110.755 86.5922 110.338C88.3069 109.388 88.3301 109.364 89.2338 108.831C93.0339 106.445 96.2317 104.151 100.403 100.096C102.766 97.5931 104.62 95.6234 107.261 91.8464C108.513 89.8536 110.112 87.1657 111.247 85.1034C112.406 82.5313 115.464 75.742 107.887 71.9418Z" fill="url(#paint2_linear_2066_454)"/>
<path d="M107.888 71.9418C92.5946 65.3609 66.8043 71.71 46.3435 79.8202C43.8409 80.7702 36.6808 83.1106 42.0335 79.4726C47.4094 75.8115 46.2045 73.2162 39.137 76.7152C32.0696 80.2141 11.0527 92.4952 15.6871 97.987L18.1896 100.582C21.8276 103.849 22.5691 104.521 24.307 105.773C33.3672 97.7321 82.7928 75.07 105.779 84.9644C107.656 85.8912 108.792 87.0267 109.464 88.2316C110.113 87.1425 110.715 86.0534 111.248 85.1034C112.407 82.5313 115.465 75.7419 107.888 71.9418Z" fill="url(#paint3_linear_2066_454)"/>
<path d="M116.044 45.5953C114.445 39.8023 114.329 39.3389 112.777 35.6314C111.572 33.1288 109.857 29.8616 108.467 27.4517C107.03 25.598 105.223 23.2576 98.8969 21.3807C62.8646 12.6912 3.3824 40.428 1.71402 47.4722C1.43596 49.2333 1.04204 51.5968 0.856661 53.3579C0.532254 59.2435 0.509082 59.4752 0.740801 62.9279C1.41279 68.883 1.43596 69.1147 2.2238 72.4747L2.29332 72.6832C2.57138 63.6462 78.2507 31.0665 108.444 44.6221C110.923 45.7343 116.392 47.7966 117.272 53.4969C116.971 50.9943 116.508 47.9356 116.044 45.5953Z" fill="url(#paint4_linear_2066_454)"/>
<path d="M112.777 35.6314C111.572 33.1288 109.858 29.8616 108.467 27.4517C107.031 25.598 105.223 23.2576 98.8974 21.3807C81.5185 17.1866 58.671 21.4734 39.4847 27.8225C31.0038 30.3018 40.4579 24.393 47.2473 22.5624C50.6767 21.6356 53.6195 19.0635 47.0851 20.3379C36.3101 22.4466 1.8999 39.6865 1.71452 47.4722C1.43646 49.2333 1.04254 51.5968 0.857163 53.3579C0.671788 56.8105 0.579102 58.3166 0.579102 59.6838C12.2346 48.932 69.585 23.6979 105.64 32.7117C109.186 33.7776 111.457 35.0057 113.032 36.2338C112.94 36.0485 112.855 35.8476 112.777 35.6314Z" fill="url(#paint5_linear_2066_454)"/>
<path style="mix-blend-mode:overlay" opacity="0.5" d="M116.044 45.5952C114.445 39.8023 114.329 39.3388 112.777 35.6313C111.572 33.1288 109.857 29.8615 108.467 27.4517C107.03 25.5979 105.223 23.2575 98.8969 21.3806C98.3408 21.2416 97.7847 21.118 97.2285 21.0099C97.0277 20.9635 96.8346 20.9249 96.6492 20.894C96.263 20.8168 95.8846 20.7473 95.5138 20.6855C95.2821 20.6391 95.0504 20.6005 94.8187 20.5696C94.4634 20.5078 94.1158 20.4537 93.7759 20.4074C93.5133 20.3765 93.2584 20.3456 93.0113 20.3147C92.6714 20.2684 92.3393 20.222 92.0149 20.1757C91.7368 20.1448 91.4665 20.1139 91.2038 20.083C90.8794 20.0521 90.5473 20.0212 90.2075 19.9903C89.9294 19.9749 89.6513 19.9517 89.3733 19.9208C89.0489 19.9053 88.7245 19.8822 88.4 19.8513C88.1065 19.8358 87.8207 19.8204 87.5427 19.8049C87.2183 19.7895 86.8939 19.774 86.5695 19.7586C86.276 19.7586 85.9824 19.7509 85.6889 19.7354C85.3645 19.7354 85.0324 19.7277 84.6925 19.7122C84.399 19.7122 84.1055 19.7122 83.812 19.7122C83.4876 19.7122 83.1632 19.7122 82.8388 19.7122C82.5298 19.7122 82.2209 19.72 81.9119 19.7354C81.5875 19.7354 81.2631 19.7354 80.9387 19.7354C80.6297 19.7509 80.3131 19.7663 79.9887 19.7818C79.6797 19.7972 79.363 19.8127 79.0386 19.8281C78.7142 19.8436 78.3898 19.859 78.0654 19.8744C77.7564 19.8899 77.4397 19.9053 77.1153 19.9208C76.7909 19.9517 76.4665 19.9749 76.1421 19.9903C75.8177 20.0212 75.4933 20.0521 75.1689 20.083C74.8445 20.0984 74.5201 20.1216 74.1957 20.1525C73.8713 20.1834 73.5546 20.2143 73.2456 20.2452C72.9058 20.2915 72.5659 20.3302 72.2261 20.3611C71.9171 20.392 71.6082 20.4306 71.2992 20.4769C70.9439 20.5078 70.5963 20.5464 70.2565 20.5928C69.9475 20.6391 69.6385 20.6777 69.3296 20.7086C68.9897 20.755 68.6422 20.8091 68.2869 20.8708C67.9933 20.9017 67.6921 20.9404 67.3831 20.9867C67.0278 21.0485 66.6725 21.1026 66.3172 21.1489C66.0237 21.1952 65.7302 21.2493 65.4367 21.3111C65.066 21.3575 64.7029 21.4115 64.3476 21.4733C64.0541 21.5351 63.7606 21.5892 63.4671 21.6355C63.1118 21.6973 62.7488 21.7668 62.378 21.8441C62.1 21.8904 61.8219 21.9445 61.5438 22.0063C61.1576 22.0681 60.7714 22.1376 60.3852 22.2148C60.1226 22.2766 59.86 22.3307 59.5974 22.377C59.2112 22.4697 58.8173 22.5547 58.4156 22.6319C58.1685 22.6937 57.9213 22.7478 57.6741 22.7941C57.2725 22.8868 56.8708 22.9795 56.4692 23.0722C56.2375 23.1185 56.0058 23.1726 55.774 23.2344C55.3415 23.3271 54.9167 23.4275 54.4996 23.5356C54.2988 23.582 54.1057 23.6283 53.9203 23.6746C53.4569 23.7828 53.0011 23.8909 52.5531 23.999C52.4141 24.0454 52.2751 24.084 52.1361 24.1149C51.6263 24.2385 51.1165 24.3698 50.6067 24.5088C50.5604 24.5243 50.514 24.532 50.4677 24.532C46.7138 25.5284 43.0295 26.6406 39.4842 27.8224C31.0033 30.3018 40.4574 24.393 47.2468 22.5624C50.6762 21.6355 53.6191 19.0634 47.0846 20.3379C36.3097 22.4465 1.89941 39.6864 1.71403 47.4722C1.43597 49.2332 1.04205 51.5968 0.856675 53.3578C0.841227 53.5586 0.82578 53.7517 0.810332 53.9371C0.810332 53.968 0.810332 53.9989 0.810332 54.0298C0.779436 54.6168 0.748542 55.1421 0.717646 55.6055C0.717646 55.6055 0.717646 55.6132 0.717646 55.6287C0.702198 56.1076 0.686747 56.5401 0.671299 56.9263C0.655851 57.0499 0.64813 57.1735 0.64813 57.297C0.64813 57.3125 0.64813 57.3202 0.64813 57.3202C0.64813 57.4283 0.640404 57.5365 0.624956 57.6446C0.624956 57.6601 0.624956 57.6678 0.624956 57.6678C0.624956 57.7759 0.624956 57.8841 0.624956 57.9922C0.601784 58.4325 0.601785 58.8032 0.578613 59.1508C0.578613 59.1508 0.578613 59.1585 0.578613 59.174C0.578613 59.2512 0.578613 59.3284 0.578613 59.4057C0.578613 59.4211 0.578613 59.4289 0.578613 59.4289C0.578613 60.4716 0.648128 61.3753 0.740816 62.9278C1.4128 68.883 1.43597 69.1147 2.22382 72.4746L2.29333 72.6832C2.57139 63.6461 78.2508 31.0665 108.444 44.622C110.923 45.7343 116.392 47.7966 117.272 53.4968C116.971 50.9943 116.508 47.9356 116.044 45.5952Z" fill="url(#paint6_linear_2066_454)"/>
<path d="M13.1613 22.5393C14.3662 21.1258 15.9883 19.2489 17.2395 17.9049C20.8543 14.3596 23.6581 11.9497 28.9182 8.65934C30.656 7.63977 30.6561 7.63977 31.5366 7.17634C33.1586 6.34215 33.1586 6.34215 33.9465 5.94822L35.0355 5.43845C28.7328 8.38127 29.7292 9.19229 29.8682 9.28498C30.5634 9.70207 33.9465 8.82154 36.8893 7.17634C41.2688 5.13721 44.536 5.69333 43.4469 8.28858C40.3187 15.8194 14.5284 27.2432 12.721 23.9064C12.4893 23.4893 12.9064 22.8869 13.1613 22.5393Z" fill="url(#paint7_linear_2066_454)"/>
<path d="M20.5531 15.5412C20.4141 15.3095 20.5068 14.9851 20.6458 14.7071C19.5104 15.7035 18.4213 16.7462 17.2395 17.9048C15.9883 19.2487 14.3662 21.1257 13.1613 22.5392C12.9064 22.8867 12.4893 23.4892 12.721 23.9063C14.5284 27.243 40.3187 15.8193 43.4469 8.28845C43.6323 7.87135 43.6786 7.50061 43.6555 7.19937C34.8733 12.946 21.8044 17.8584 20.5531 15.5412Z" fill="url(#paint8_linear_2066_454)"/>
<path d="M85.7361 6.71279C111.086 19.6195 48.5452 63.4144 13.5325 72.5441C9.03714 73.7027 3.10514 74.8381 2.29412 72.6831C1.41359 70.3659 -0.834084 58.9886 1.71482 47.4721C1.85385 54.5164 44.5828 37.8095 62.9349 17.9512C69.7938 10.5361 72.8525 1.49911 58.9262 0.410036C69.817 0.0161139 78.5296 3.05163 85.7361 6.71279Z" fill="url(#paint9_linear_2066_454)"/>
<path d="M108.468 27.4517C108.954 28.3554 109.534 29.5603 109.765 30.5335C115.79 55.2811 29.0345 106.978 15.6875 97.9869C20.6695 104.29 32.1859 111.496 36.0324 112.469C56.331 117.567 118.826 81.5349 117.389 54.3774C116.763 42.7915 111.874 32.4336 108.468 27.4517Z" fill="url(#paint10_linear_2066_454)"/>
<path d="M107.263 91.8465C105.293 94.5344 103.578 96.8748 100.404 100.096C97.484 102.899 94.6107 105.518 89.2348 108.831C87.4738 109.851 87.4738 109.851 86.5932 110.338C84.9944 111.172 84.9944 111.172 84.1833 111.543C82.6308 112.261 82.6308 112.261 81.8662 112.585C80.2905 113.234 80.2905 113.234 79.5026 113.535C77.8806 114.115 77.8343 114.138 77.0001 114.393C75.1927 114.949 75.1463 114.972 74.1963 115.227C72.1108 115.76 72.0413 115.783 70.9059 116.015C68.3801 116.478 68.2179 116.525 66.7349 116.71C65.7385 116.826 64.3714 116.988 63.375 117.057C73.1304 115.876 102.512 101.254 111.248 85.1035C110.113 87.1658 108.583 89.9 107.263 91.8465Z" fill="url(#paint11_linear_2066_454)"/>
<path d="M91.4592 13.3633C91.2584 12.3591 90.8722 11.4168 90.3006 10.5363C90.2852 10.5363 90.2775 10.5286 90.2775 10.5131C89.3042 9.05329 87.8212 7.77884 85.7358 6.71294C81.3563 4.48843 76.4207 2.49565 70.7899 1.36023C72.3656 1.87001 73.8718 2.47248 75.2621 3.19081C96.951 14.2206 46.9229 53.3579 10.0796 60.6802C5.93181 61.5144 2.8036 61.3522 0.579102 60.8656C0.764477 66.7513 1.76087 71.3161 2.29382 72.6833C3.10484 74.8383 9.03684 73.7028 13.5322 72.5443C27.3195 68.9526 45.3704 59.9851 60.6406 49.6504C66.086 45.9661 73.2693 42.9769 63.3749 50.9712C57.1185 55.9995 63.3749 56.1849 74.6828 47.1015C93.7996 31.7617 93.0117 18.8087 91.4592 13.3633Z" fill="url(#paint12_linear_2066_454)"/>
<path d="M91.4592 13.3633C91.2584 12.3591 90.8722 11.4168 90.3006 10.5363C90.2852 10.5363 90.2775 10.5286 90.2775 10.5131C89.3042 9.05329 87.8212 7.77884 85.7358 6.71294C81.3563 4.48843 76.4207 2.49565 70.7899 1.36023C72.3656 1.87001 73.8718 2.47248 75.2621 3.19081C96.951 14.2206 46.9229 53.3579 10.0796 60.6802C5.93181 61.5144 2.8036 61.3522 0.579102 60.8656C0.764477 66.7513 1.76087 71.3161 2.29382 72.6833C3.10484 74.8383 9.03684 73.7028 13.5322 72.5443C27.3195 68.9526 45.3704 59.9851 60.6406 49.6504C66.086 45.9661 73.2693 42.9769 63.3749 50.9712C57.1185 55.9995 63.3749 56.1849 74.6828 47.1015C93.7996 31.7617 93.0117 18.8087 91.4592 13.3633Z" fill="url(#paint13_linear_2066_454)"/>
<path d="M114.26 39.2231C114.306 39.8024 114.283 40.4743 114.33 41.0536C115.882 70.4587 49.958 109.272 25.2104 106.491C29.4972 109.642 33.8767 111.936 36.0317 112.469C38.2099 113.025 40.8746 113.095 43.887 112.747C45.6017 112.608 46.5518 113.327 44.4895 113.697C42.1723 114.091 39.7392 114.161 36.2634 113.86C34.456 113.697 34.0389 118.239 46.5749 115.644C91.4125 106.352 108.397 78.3372 114.515 66.172C115.187 66.0098 113.75 68.3733 113.379 69.9953C112.823 72.4747 115.952 73.054 117.411 62.6267C118.547 54.4702 116.16 44.4367 114.26 39.2231Z" fill="url(#paint14_linear_2066_454)"/>
<path d="M114.26 39.2231C114.306 39.8024 114.283 40.4743 114.33 41.0536C115.882 70.4587 49.958 109.272 25.2104 106.491C29.4972 109.642 33.8767 111.936 36.0317 112.469C38.2099 113.025 40.8746 113.095 43.887 112.747C45.6017 112.608 46.5518 113.327 44.4895 113.697C42.1723 114.091 39.7392 114.161 36.2634 113.86C34.456 113.697 34.0389 118.239 46.5749 115.644C91.4125 106.352 108.397 78.3372 114.515 66.172C115.187 66.0098 113.75 68.3733 113.379 69.9953C112.823 72.4747 115.952 73.054 117.411 62.6267C118.547 54.4702 116.16 44.4367 114.26 39.2231Z" fill="url(#paint15_linear_2066_454)"/>
<path d="M43.5641 7.06057C35.6857 12.2047 24.4705 16.6537 21.3423 15.8891C21.0179 15.7964 20.8016 15.6573 20.6935 15.472C20.6008 15.302 20.6317 15.0703 20.7862 14.7768L20.8557 14.6378L20.7862 14.5914C20.6471 14.715 20.5081 14.8386 20.3691 14.9622C20.2918 15.2093 20.2996 15.4256 20.3922 15.611C20.5467 15.8891 20.8402 16.0822 21.2728 16.1903C21.5199 16.2521 21.8212 16.283 22.1765 16.283C26.2316 16.283 36.3577 12.1584 43.6568 7.38497C43.6568 7.26139 43.6414 7.1378 43.6105 7.01422L43.5641 7.06057Z" fill="url(#paint16_linear_2066_454)"/>
<path d="M70.7206 1.52234C72.3427 2.05529 73.8488 2.65776 75.1696 3.32974C79.0857 5.32253 80.8004 8.3117 80.2674 12.2046C79.2247 19.6196 69.9791 30.0469 55.4967 40.034C40.9447 50.1138 23.9598 57.7605 10.0335 60.5179C6.51132 61.2363 3.33678 61.2826 0.602499 60.7265L0.556152 60.7033C0.5716 60.8115 0.579326 60.9273 0.579326 61.0509C1.81516 61.2981 3.14368 61.4216 4.56489 61.4216C6.30278 61.4216 8.15653 61.2363 10.103 60.8424C24.0524 58.0849 41.1069 50.3918 55.6821 40.3121C70.234 30.2555 79.5491 19.7586 80.5918 12.2509C81.148 8.19584 79.3637 5.09081 75.3318 3.02851C74.3354 2.5419 73.2464 2.07846 72.1109 1.6382C71.1532 1.42193 70.1722 1.22883 69.1681 1.0589L70.7206 1.52234Z" fill="url(#paint17_linear_2066_454)"/>
<path d="M114.493 41.0304C114.47 40.6133 114.424 40.1499 114.401 39.6169C114.246 39.1689 114.092 38.7364 113.937 38.3193L114.03 39.3157C114.099 39.9877 114.146 40.5438 114.169 41.0536C114.493 47.4259 111.759 57.9691 96.7204 72.1503C86.7565 81.5349 73.0851 90.7109 59.2283 97.3381C45.3947 103.919 33.0209 107.209 25.2352 106.329L25.073 106.306L25.0498 106.375C25.2043 106.483 25.351 106.584 25.4901 106.676C26.2625 106.754 27.0812 106.792 27.9463 106.792C45.2789 106.792 77.0243 91.1512 96.929 72.382C105.294 64.5267 115.119 52.6859 114.493 41.0304Z" fill="url(#paint18_linear_2066_454)"/>
<path d="M168.015 79.8606C169.684 79.8606 171.037 79.4865 172.073 78.7382C173.166 77.9324 173.799 76.8964 173.972 75.6302H190.894C189.915 79.9469 187.354 83.5155 183.21 86.3358C179.066 89.1561 174.058 90.5662 168.187 90.5662C160.763 90.5662 154.949 88.3791 150.748 84.0047C146.604 79.5728 144.531 73.9034 144.531 66.9966C144.531 60.3199 146.604 54.8232 150.748 50.5064C154.949 46.1321 160.676 43.9449 167.928 43.9449C173.224 43.9449 177.713 45.1248 181.397 47.4847C185.138 49.8445 187.872 53.1828 189.599 57.4996C190.865 60.6653 191.498 65.0396 191.498 70.6227H160.849C161.137 76.7813 163.525 79.8606 168.015 79.8606ZM167.928 54.3052C164.015 54.3052 161.683 56.8377 160.935 61.9028H174.835C174.432 56.8377 172.13 54.3052 167.928 54.3052ZM213.924 90.3936C208.916 90.3936 204.974 88.8395 202.096 85.7314C199.276 82.6234 197.865 78.1627 197.865 72.3494V45.3263H214.442V70.2773C214.442 75.1697 216.169 77.6159 219.622 77.6159C223.593 77.6159 225.579 74.1912 225.579 67.3419V45.3263H242.156V89.1849H226.788V84.1774H226.615C223.507 88.3215 219.277 90.3936 213.924 90.3936ZM279.816 44.6356C281.428 44.6356 282.867 44.8083 284.133 45.1536V59.3127C282.637 58.9673 280.967 58.7947 279.126 58.7947C275.557 58.7947 272.823 59.8883 270.924 62.0754C269.024 64.2626 268.075 67.3995 268.075 71.486V89.1849H251.498V45.3263H266.866V51.2834H267.039C270.089 46.8515 274.348 44.6356 279.816 44.6356ZM292.993 50.2474C297.425 46.0457 303.382 43.9449 310.864 43.9449C318.347 43.9449 324.304 46.0457 328.736 50.2474C333.168 54.4491 335.384 60.1185 335.384 67.2556C335.384 74.3927 333.168 80.0621 328.736 84.2637C324.304 88.4654 318.347 90.5662 310.864 90.5662C303.382 90.5662 297.425 88.4654 292.993 84.2637C288.561 80.0621 286.345 74.3927 286.345 67.2556C286.345 60.1185 288.561 54.4491 292.993 50.2474ZM316.044 59.2263C314.836 57.2694 313.109 56.2909 310.864 56.2909C308.619 56.2909 306.864 57.2694 305.598 59.2263C304.389 61.1257 303.785 63.8021 303.785 67.2556C303.785 70.709 304.389 73.4142 305.598 75.3711C306.864 77.2705 308.619 78.2202 310.864 78.2202C313.109 78.2202 314.836 77.2705 316.044 75.3711C317.311 73.4142 317.944 70.709 317.944 67.2556C317.944 63.8021 317.311 61.1257 316.044 59.2263ZM358.795 27.7138V89.1849H342.218V27.7138H358.795ZM384.679 45.3263V89.1849H368.102V45.3263H384.679ZM384.679 27.7138V39.8871H368.102V27.7138H384.679ZM419.455 38.6784C417.325 38.6784 415.743 39.1677 414.707 40.1461C413.728 41.067 413.239 42.5923 413.239 44.7219V45.3263H421.182V57.1543H413.239V89.1849H396.662V57.1543H389.928V45.3263H396.662V42.8225C396.662 32.1745 402.418 26.8504 413.93 26.8504C416.405 26.8504 418.966 27.1382 421.613 27.7138V38.9374C421.211 38.7648 420.491 38.6784 419.455 38.6784ZM446.498 79.8606C448.168 79.8606 449.52 79.4865 450.556 78.7382C451.65 77.9324 452.283 76.8964 452.456 75.6302H469.377C468.399 79.9469 465.838 83.5155 461.694 86.3358C457.549 89.1561 452.542 90.5662 446.671 90.5662C439.246 90.5662 433.433 88.3791 429.231 84.0047C425.087 79.5728 423.015 73.9034 423.015 66.9966C423.015 60.3199 425.087 54.8232 429.231 50.5064C433.433 46.1321 439.16 43.9449 446.412 43.9449C451.707 43.9449 456.197 45.1248 459.88 47.4847C463.622 49.8445 466.356 53.1828 468.082 57.4996C469.349 60.6653 469.982 65.0396 469.982 70.6227H439.333C439.62 76.7813 442.009 79.8606 446.498 79.8606ZM446.412 54.3052C442.498 54.3052 440.167 56.8377 439.419 61.9028H453.319C452.916 56.8377 450.614 54.3052 446.412 54.3052Z" fill="white"/>
<defs>
<linearGradient id="paint0_linear_2066_454" x1="11.7048" y1="12.5337" x2="73.4111" y2="-9.47601" gradientUnits="userSpaceOnUse">
<stop stop-color="#076BFF"/>
<stop offset="1" stop-color="#DD65F5"/>
</linearGradient>
<linearGradient id="paint1_linear_2066_454" x1="49.4483" y1="0.289551" x2="49.4483" y2="22.5393" gradientUnits="userSpaceOnUse">
<stop stop-color="#DCDCDC"/>
<stop offset="1" stop-color="#D3D3D3"/>
</linearGradient>
<linearGradient id="paint2_linear_2066_454" x1="64.141" y1="69.2132" x2="64.141" y2="117.08" gradientUnits="userSpaceOnUse">
<stop stop-color="#DCDCDC"/>
<stop offset="1" stop-color="#D3D3D3"/>
</linearGradient>
<linearGradient id="paint3_linear_2066_454" x1="63.9356" y1="69.2062" x2="63.9356" y2="105.773" gradientUnits="userSpaceOnUse">
<stop stop-color="#DCDCDC"/>
<stop offset="1" stop-color="#D3D3D3"/>
</linearGradient>
<linearGradient id="paint4_linear_2066_454" x1="58.9296" y1="19.7122" x2="58.9296" y2="72.6832" gradientUnits="userSpaceOnUse">
<stop stop-color="#DCDCDC"/>
<stop offset="1" stop-color="#D3D3D3"/>
</linearGradient>
<linearGradient id="paint5_linear_2066_454" x1="56.8057" y1="19.7111" x2="56.8057" y2="59.6838" gradientUnits="userSpaceOnUse">
<stop stop-color="#DCDCDC"/>
<stop offset="1" stop-color="#D3D3D3"/>
</linearGradient>
<linearGradient id="paint6_linear_2066_454" x1="159.065" y1="42.572" x2="12.2577" y2="92.741" gradientUnits="userSpaceOnUse">
<stop offset="0.002" stop-color="white" stop-opacity="0"/>
<stop offset="0.997" stop-color="#B8B8B8"/>
</linearGradient>
<linearGradient id="paint7_linear_2066_454" x1="12.6533" y1="14.9679" x2="43.6384" y2="14.9679" gradientUnits="userSpaceOnUse">
<stop stop-color="#78B72A"/>
<stop offset="1" stop-color="#00953E"/>
</linearGradient>
<linearGradient id="paint8_linear_2066_454" x1="12.6533" y1="15.8486" x2="43.6414" y2="15.8486" gradientUnits="userSpaceOnUse">
<stop stop-color="#78B72A"/>
<stop offset="1" stop-color="#00953E"/>
</linearGradient>
<linearGradient id="paint9_linear_2066_454" x1="0.536133" y1="37.1278" x2="91.5696" y2="37.1278" gradientUnits="userSpaceOnUse">
<stop stop-color="#78B72A"/>
<stop offset="1" stop-color="#00953E"/>
</linearGradient>
<linearGradient id="paint10_linear_2066_454" x1="15.6875" y1="70.1924" x2="117.349" y2="70.1924" gradientUnits="userSpaceOnUse">
<stop stop-color="#78B72A"/>
<stop offset="1" stop-color="#00953E"/>
</linearGradient>
<linearGradient id="paint11_linear_2066_454" x1="63.375" y1="101.076" x2="111.218" y2="101.076" gradientUnits="userSpaceOnUse">
<stop stop-color="#78B72A"/>
<stop offset="1" stop-color="#00953E"/>
</linearGradient>
<linearGradient id="paint12_linear_2066_454" x1="-28.8174" y1="40.1622" x2="52.2757" y2="-27.5435" gradientUnits="userSpaceOnUse">
<stop stop-color="#13D2FD"/>
<stop offset="1" stop-color="#F5CAE6"/>
</linearGradient>
<linearGradient id="paint13_linear_2066_454" x1="0.579102" y1="37.6203" x2="92.1234" y2="37.6203" gradientUnits="userSpaceOnUse">
<stop stop-color="#78B72A"/>
<stop offset="1" stop-color="#00953E"/>
</linearGradient>
<linearGradient id="paint14_linear_2066_454" x1="-2.54761" y1="84.0581" x2="62.3051" y2="14.431" gradientUnits="userSpaceOnUse">
<stop stop-color="#65CDFD"/>
<stop offset="1" stop-color="#F5CAE6"/>
</linearGradient>
<linearGradient id="paint15_linear_2066_454" x1="25.2104" y1="77.8246" x2="117.647" y2="77.8246" gradientUnits="userSpaceOnUse">
<stop stop-color="#78B72A"/>
<stop offset="1" stop-color="#00953E"/>
</linearGradient>
<linearGradient id="paint16_linear_2066_454" x1="7.92484" y1="20.2871" x2="40.1419" y2="1.05744" gradientUnits="userSpaceOnUse">
<stop stop-color="white" stop-opacity="0"/>
<stop offset="0.999" stop-color="white" stop-opacity="0.5"/>
</linearGradient>
<linearGradient id="paint17_linear_2066_454" x1="-22.02" y1="34.3808" x2="54.8869" y2="-29.8298" gradientUnits="userSpaceOnUse">
<stop stop-color="white" stop-opacity="0"/>
<stop offset="0.999" stop-color="white" stop-opacity="0.5"/>
</linearGradient>
<linearGradient id="paint18_linear_2066_454" x1="25.0609" y1="38.3198" x2="114.518" y2="38.3198" gradientUnits="userSpaceOnUse">
<stop stop-color="white" stop-opacity="0"/>
<stop offset="0.999" stop-color="white" stop-opacity="0.5"/>
</linearGradient>
</defs>
</svg>
