<svg width="68" height="80" viewBox="0 0 68 80" fill="none" xmlns="http://www.w3.org/2000/svg">
<g clip-path="url(#clip0_2074_1115)">
<path d="M57.6857 6.22702C53.9845 2.01986 47.294 0.216156 38.7347 0.216156H13.8935C13.0466 0.216026 12.2274 0.517272 11.5834 1.06571C10.9393 1.61414 10.5126 2.37377 10.38 3.20794L0.036607 68.6297C-0.168987 69.9197 0.832685 71.0879 2.14381 71.0879H17.4799L21.3315 46.7248L21.212 47.4877C21.4864 45.7656 22.9632 44.4954 24.7121 44.4954H31.9998C46.3165 44.4954 57.5266 38.6962 60.8013 21.9203C60.8985 21.4241 60.9827 20.9412 61.0555 20.4694C60.6421 20.2511 60.6421 20.2511 61.0555 20.4694C62.0306 14.2689 61.0488 10.0482 57.6857 6.22702Z" fill="#27346A"/>
<path d="M27.1997 18.2358C27.6188 18.0363 28.0775 17.9332 28.5419 17.9338H48.017C50.3231 17.9338 52.4742 18.0834 54.4398 18.3989C54.9898 18.4865 55.537 18.5909 56.0806 18.712C56.851 18.8816 57.6125 19.0891 58.3623 19.3338C59.3286 19.6556 60.2286 20.0305 61.0557 20.4694C62.0306 14.2665 61.0488 10.0482 57.6857 6.22702C53.9824 2.01986 47.294 0.216156 38.7347 0.216156H13.8913C12.1422 0.216156 10.6542 1.48609 10.38 3.20794L0.0366085 68.6273C-0.168985 69.9195 0.832687 71.0861 2.14169 71.0861H17.4799L25.4707 20.551C25.5494 20.0543 25.7478 19.5841 26.049 19.1808C26.3501 18.7775 26.745 18.4532 27.1997 18.2358Z" fill="#27346A"/>
<path d="M60.8004 21.9203C57.5258 38.6938 46.3159 44.4953 31.999 44.4953H24.7091C22.9603 44.4953 21.4831 45.7656 21.2114 47.4877L16.4198 77.7804C16.2408 78.9094 17.1163 79.9324 18.2616 79.9324H31.1896C31.9302 79.9322 32.6463 79.6686 33.2094 79.1888C33.7724 78.709 34.1453 78.0447 34.261 77.3152L34.3869 76.6583L36.8235 61.258L36.9805 60.4069C37.0962 59.6775 37.4691 59.0131 38.032 58.5334C38.595 58.0536 39.3111 57.7899 40.0516 57.7897H41.9865C54.5099 57.7897 64.316 52.7157 67.1815 38.0413C68.3776 31.9089 67.7587 26.7889 64.5946 23.1926C63.6349 22.1033 62.443 21.2037 61.0546 20.4694C60.9794 20.9436 60.8979 21.4241 60.8004 21.9203Z" fill="#2790C3"/>
<path d="M57.6281 19.1068C57.1175 18.9581 56.6021 18.8264 56.0827 18.7121C55.5389 18.5928 54.9917 18.4891 54.442 18.4011C52.4742 18.0834 50.3248 17.9335 48.0165 17.9335H28.5438C28.0791 17.9327 27.6202 18.0368 27.2016 18.2379C26.7463 18.4545 26.3509 18.7786 26.0496 19.182C25.7483 19.5855 25.5502 20.0561 25.4724 20.5531L21.3334 46.7248L21.2139 47.4877C21.4861 45.7656 22.963 44.4954 24.7121 44.4954H32.002C46.3186 44.4954 57.5285 38.6962 60.8031 21.9203C60.9006 21.4241 60.9824 20.9433 61.0576 20.4694C60.2285 20.0332 59.3307 19.6554 58.3642 19.3359C58.1203 19.2552 57.875 19.1788 57.6284 19.1068" fill="#1F264F"/>
</g>
<defs>
<clipPath id="clip0_2074_1115">
<rect width="68" height="80" fill="white"/>
</clipPath>
</defs>
</svg>
