<svg width="79" height="79" viewBox="0 0 79 79" fill="none" xmlns="http://www.w3.org/2000/svg">
<g clip-path="url(#clip0_4017_932)">
<rect x="11" y="19" width="58" height="41" fill="white"/>
<mask id="mask0_4017_932" style="mask-type:luminance" maskUnits="userSpaceOnUse" x="0" y="0" width="79" height="79">
<path d="M0 0H79V79H0V0Z" fill="white"/>
</mask>
<g mask="url(#mask0_4017_932)">
<path fill-rule="evenodd" clip-rule="evenodd" d="M70.2115 8.84793C74.8034 13.7196 77.4269 20.3753 78.365 27.6861C79.2998 34.7138 78.9246 39.4933 78.9246 39.4933C78.9246 39.4933 79.2077 44.2728 78.2695 51.3006C77.3347 58.6081 74.7079 65.2671 70.1161 70.1388C65.2444 74.7306 58.5887 77.3541 51.2812 78.2922C44.2502 79.1349 39.4707 78.9506 39.4707 78.9506C39.4707 78.9506 34.6944 79.2271 27.6634 78.2922C20.3559 77.3541 13.7002 74.7306 8.82853 70.1388C4.23666 65.2671 1.60991 58.6113 0.675072 51.3006C-0.170886 44.2728 0.0167389 39.4933 0.0167389 39.4933C0.0167389 39.4933 -0.170886 34.7138 0.767239 27.6861C1.70536 20.3753 4.32882 13.7229 8.9207 8.84793C13.7924 4.25606 20.4481 1.6326 27.7589 0.694473C34.7866 -0.148193 39.5661 0.0394318 39.5661 0.0394318C39.5661 0.0394318 44.3456 -0.24036 51.3733 0.697765C58.6808 1.6326 65.3366 4.25606 70.2115 8.84793ZM21.666 27.9659H14.6383V48.6771H18.4797V42.7751H21.666C22.7918 42.7751 23.8221 42.5842 24.6647 42.209C25.5074 41.8337 26.3534 41.2741 27.0084 40.6191C27.6956 39.9563 28.2381 39.1583 28.6016 38.2754C28.9768 37.3373 29.1612 36.3992 29.1612 35.3689C29.1672 34.3738 28.9771 33.3872 28.6016 32.4656C28.2381 31.5828 27.6956 30.7848 27.0084 30.122C26.3456 29.4348 25.5476 28.8923 24.6647 28.5288C23.712 28.1497 22.6946 27.9596 21.6693 27.9692L21.666 27.9659ZM18.3875 39.1181V31.4353H21.3829C21.9491 31.4353 22.5087 31.5275 22.9794 31.7151C23.4391 31.9091 23.8537 32.196 24.1973 32.5578C24.4771 32.9331 24.7569 33.3083 24.9478 33.7757C25.1354 34.2464 25.2276 34.7138 25.2276 35.2767C25.2276 35.8363 25.1354 36.307 24.9478 36.7777C24.7796 37.2384 24.5179 37.6593 24.1791 38.0139C23.8404 38.3685 23.4319 38.6492 22.9794 38.8383C22.471 39.032 21.9303 39.127 21.3862 39.1181H18.3875ZM35.0664 48.1142C36.1 48.4895 37.0348 48.6771 38.0684 48.6771C39.1909 48.6771 40.129 48.4895 41.0638 48.1142C42.0019 47.6468 42.8479 47.0839 43.4075 46.3334V48.6771H47.2522V31.9949H43.4075V34.151C42.7524 33.4926 42.0019 32.9331 41.0671 32.5578C40.1148 32.1693 39.0934 31.9789 38.0651 31.9982C36.9427 31.9982 36.0045 32.1826 34.9742 32.5578C34.0361 32.9331 33.098 33.4005 32.3508 34.151C31.5706 34.9037 30.9347 35.7928 30.4745 36.7744C30.0071 37.8047 29.8195 39.0259 29.8195 40.336C29.8195 41.6494 30.1026 42.8673 30.57 43.8976C31.0374 44.9279 31.6957 45.7739 32.4462 46.5211C33.1934 47.1794 34.1316 47.739 35.0664 48.1142ZM40.6919 44.8357C40.129 45.1155 39.4739 45.211 38.7234 45.211C38.0514 45.1925 37.3867 45.0658 36.755 44.8357L36.7419 44.8291C36.1823 44.5494 35.626 44.2696 35.1619 43.8054C34.7681 43.3087 34.4231 42.7752 34.1316 42.2123C33.8665 41.6232 33.7382 40.9817 33.7563 40.336C33.7563 39.681 33.8485 39.0259 34.1316 38.4631C34.3192 37.9035 34.6912 37.4328 35.1619 36.9621C35.6157 36.5118 36.1583 36.161 36.755 35.9318C37.4134 35.652 38.0684 35.5565 38.7234 35.5565C39.3818 35.5565 40.0335 35.652 40.6919 36.0272C41.3469 36.307 41.8143 36.5868 42.285 37.0575C42.7524 37.4328 43.0322 37.9956 43.3153 38.5585C43.5951 39.1181 43.6906 39.7764 43.6906 40.4315C43.6906 41.0865 43.5951 41.7416 43.3153 42.3077C43.0613 42.8629 42.7127 43.3697 42.285 43.8054C41.8143 44.2728 41.2547 44.5559 40.6919 44.8357ZM57.2786 43.4302L52.5912 32.0904H48.5622L55.3102 47.9299L51.844 56.2677H55.7776L65.6197 32.0904H61.5874L57.2786 43.4302Z" fill="url(#paint0_linear_4017_932)"/>
</g>
</g>
<defs>
<linearGradient id="paint0_linear_4017_932" x1="-0.000977151" y1="39.4946" x2="78.999" y2="39.4946" gradientUnits="userSpaceOnUse">
<stop stop-color="#78B72A"/>
<stop offset="1" stop-color="#00953E"/>
</linearGradient>
<clipPath id="clip0_4017_932">
<rect width="79" height="79" fill="white"/>
</clipPath>
</defs>
</svg>
