<svg width="187" height="62" viewBox="0 0 187 62" fill="none" xmlns="http://www.w3.org/2000/svg">
<path d="M51.7176 18.5497C51.6605 23.1468 55.7266 25.7119 58.7895 27.2372C61.9363 28.802 62.9934 29.8056 62.9809 31.2051C62.9574 33.3468 60.4707 34.2921 58.1438 34.3288C54.084 34.3931 51.7234 33.2087 49.8469 32.3129L48.3844 39.3062C50.2672 40.1928 53.7535 40.9661 57.3687 41C65.8551 41 71.407 36.7191 71.4371 30.0818C71.4703 21.6582 60.0355 21.1919 60.1137 17.4268C60.1406 16.2851 61.2066 15.0668 63.5426 14.757C64.6988 14.6006 67.8906 14.4808 71.5094 16.1837L72.9297 9.41751C70.9836 8.69339 68.4824 8 65.3684 8C57.3809 8 51.7629 12.3392 51.7176 18.5497ZM86.5773 8.58281C85.0277 8.58281 83.7219 9.50653 83.1391 10.924L71.0168 40.503H79.4969L81.1844 35.7371H91.5469L92.5258 40.503H100L93.4777 8.58281H86.5773ZM87.7637 17.2057L90.2109 29.192H83.5086L87.7637 17.2057ZM41.4359 8.58321L34.7516 40.5026H42.8324L49.5137 8.58241L41.4359 8.58321ZM29.4816 8.58321L21.0707 30.309L17.6684 11.8358C17.2691 9.77359 15.6926 8.58281 13.9418 8.58281H0.192578L0 9.50972C2.82266 10.1357 6.02969 11.1452 7.97266 12.2254C9.16172 12.8853 9.50078 13.4621 9.89141 15.0301L16.3355 40.503H24.875L37.9672 8.58281L29.4816 8.58321Z" fill="url(#paint0_linear_4015_931)"/>
<path d="M137.427 5.26627H158.496V43.9776H137.427V5.26627Z" fill="#FF5F00"/>
<path d="M138.765 24.6221C138.765 16.7568 142.376 9.78042 147.928 5.26626C143.848 1.98338 138.698 0 133.079 0C119.769 0 109 11.0114 109 24.6221C109 38.2328 119.769 49.2442 133.079 49.2442C138.698 49.2442 143.848 47.2608 147.928 43.9776C142.376 39.532 138.765 32.4874 138.765 24.6221Z" fill="#EB001B"/>
<path d="M186.923 24.6221C186.923 38.2325 176.154 49.2442 162.844 49.2442C157.225 49.2442 152.075 47.2608 147.995 43.9776C153.614 39.4638 157.159 32.4874 157.159 24.6221C157.159 16.7568 153.547 9.78042 147.995 5.26626C152.075 1.98338 157.225 0 162.844 0C176.154 0 186.923 11.0799 186.923 24.6221Z" fill="#F79E1B"/>
<defs>
<linearGradient id="paint0_linear_4015_931" x1="4597.4" y1="107.198" x2="4695.01" y2="-3281.83" gradientUnits="userSpaceOnUse">
<stop stop-color="#222357"/>
<stop offset="1" stop-color="#254AA5"/>
</linearGradient>
</defs>
</svg>
