<svg width="20" height="18" viewBox="0 0 20 18" fill="none" xmlns="http://www.w3.org/2000/svg">
<path d="M10.7878 15.75H7.74551V6.75H10.7878V8.25C11.4362 7.43644 12.4197 6.95143 13.4688 6.92775C15.3554 6.93808 16.8778 8.45203 16.8723 10.3125V15.75H13.83V10.6875C13.7084 9.84947 12.9795 9.22768 12.121 9.2295C11.7455 9.24121 11.3911 9.40333 11.1395 9.67847C10.8879 9.9536 10.7609 10.318 10.7878 10.6875V15.75ZM6.22438 15.75H3.18213V6.75H6.22438V15.75ZM4.70326 5.25C3.86316 5.25 3.18213 4.57843 3.18213 3.75C3.18213 2.92157 3.86316 2.25 4.70326 2.25C5.54335 2.25 6.22438 2.92157 6.22438 3.75C6.22438 4.14782 6.06412 4.52936 5.77886 4.81066C5.49359 5.09196 5.10668 5.25 4.70326 5.25Z" fill="#EDEDED"/>
</svg>
