<svg width="20" height="20" viewBox="0 0 20 20" fill="none" xmlns="http://www.w3.org/2000/svg">
<path d="M16.6635 5.57349C17.4105 5.12689 17.9695 4.42368 18.236 3.59515C17.534 4.01166 16.766 4.30505 15.9652 4.46265C14.8548 3.28809 13.0956 3.00226 11.6705 3.76487C10.2454 4.52747 9.50724 6.14973 9.86849 7.72515C6.99316 7.5808 4.3143 6.22258 2.49849 3.98849C1.55086 5.623 2.03512 7.71247 3.60516 8.76349C3.03741 8.74523 2.48226 8.59152 1.98599 8.31515C1.98599 8.33015 1.98599 8.34515 1.98599 8.36015C1.98632 10.0628 3.1863 11.5294 4.85516 11.8668C4.32854 12.0101 3.77616 12.0312 3.24016 11.9285C3.70949 13.3845 5.05145 14.3821 6.58099 14.4118C5.31418 15.4061 3.74972 15.9453 2.13932 15.9427C1.85388 15.9431 1.56866 15.9266 1.28516 15.8935C2.92048 16.9443 4.8238 17.5021 6.76766 17.5002C9.47203 17.5187 12.071 16.4526 13.9833 14.5402C15.8955 12.6278 16.9615 10.0287 16.9427 7.32432C16.9427 7.16932 16.939 7.01515 16.9318 6.86182C17.6322 6.35566 18.2367 5.72861 18.7168 5.01015C18.0643 5.29937 17.3722 5.48926 16.6635 5.57349Z" fill="#EDEDED"/>
</svg>
