<svg width="28" height="28" viewBox="0 0 28 28" fill="none" xmlns="http://www.w3.org/2000/svg">
<path d="M9.30061 21.1672L9.6181 21.3546C10.9521 22.1427 12.4816 22.5594 14.0413 22.5603H14.0447C18.8347 22.5603 22.7331 18.6804 22.7349 13.9119C22.7357 11.6009 21.8327 9.42814 20.1919 7.79334C18.551 6.15884 16.3694 5.25806 14.0478 5.2571C9.25419 5.2571 5.35572 9.13635 5.35392 13.9049C5.35328 15.5389 5.81248 17.1304 6.68253 18.5071L6.88933 18.8344L6.0112 22.0257L9.30061 21.1672ZM3.50098 24.4977L4.98429 19.1061C4.06937 17.5281 3.58805 15.7381 3.5888 13.9044C3.59103 8.1674 8.28113 3.5 14.0449 3.5C16.8417 3.5012 19.4669 4.58475 21.441 6.55149C23.4149 8.51821 24.5016 11.1325 24.5007 13.9128C24.4983 19.6494 19.8072 24.3177 14.0449 24.3177C14.0451 24.3177 14.0445 24.3177 14.0449 24.3177H14.0404C12.2906 24.3171 10.5711 23.8802 9.044 23.051L3.50098 24.4977Z" fill="#EDEDED"/>
<path d="M3.58831 13.9066C3.58768 15.7403 4.069 17.5306 4.98393 19.1084L3.50049 24.4997L9.04334 23.053C10.5706 23.882 12.2899 24.319 14.0398 24.3197H14.0442C19.8065 24.3197 24.4976 19.6514 24.5 13.9147C24.501 11.1343 23.4143 8.52008 21.4403 6.55345C19.4661 4.58682 16.8411 3.50315 14.0442 3.50195C8.28077 3.50195 3.59055 8.16935 3.58814 13.9063M6.88895 18.8365L6.68205 18.5094C5.812 17.1324 5.3528 15.541 5.35343 13.9071C5.35533 9.1389 9.25371 5.25935 14.0473 5.25935C16.3687 5.26025 18.5504 6.16111 20.1914 7.79559C21.8323 9.43018 22.7352 11.6031 22.7346 13.9139C22.7325 18.6824 18.834 22.5622 14.044 22.5622H14.0406C12.481 22.5613 10.9514 22.1446 9.61743 21.3566L9.29995 21.1693L6.01058 22.0277L6.88895 18.8365ZM14.0442 24.3197C14.0441 24.3197 14.044 24.3197 14.0442 24.3197Z" fill="#EDEDED"/>
<path fill-rule="evenodd" clip-rule="evenodd" d="M11.4311 9.55651C11.2353 9.1234 11.0294 9.11473 10.8432 9.10711C10.6909 9.10066 10.5166 9.10108 10.3426 9.10108C10.1683 9.10108 9.88525 9.16617 9.64592 9.42642C9.40637 9.68668 8.73145 10.3158 8.73145 11.5953C8.73145 12.8749 9.66774 14.1113 9.79818 14.285C9.92885 14.4584 11.6056 17.1681 14.2609 18.2104C16.4678 19.0767 16.9169 18.9044 17.3959 18.861C17.8749 18.8177 18.9416 18.2321 19.1593 17.6248C19.377 17.0176 19.377 16.4971 19.3117 16.3884C19.2465 16.28 19.0722 16.215 18.811 16.085C18.5496 15.9549 17.2652 15.3257 17.0258 15.2389C16.7862 15.1522 16.6121 15.1089 16.4378 15.3693C16.2637 15.6293 15.7633 16.215 15.6108 16.3884C15.4585 16.5622 15.306 16.5839 15.0448 16.4538C14.7834 16.3233 13.942 16.049 12.9438 15.1631C12.1671 14.4738 11.6428 13.6225 11.4904 13.3621C11.338 13.1021 11.4741 12.9612 11.6051 12.8316C11.7225 12.715 11.8664 12.5279 11.9971 12.3761C12.1274 12.2242 12.1709 12.1159 12.258 11.9424C12.3452 11.7688 12.3016 11.6169 12.2363 11.4868C12.1709 11.3568 11.6634 10.0708 11.4311 9.55651Z" fill="#EDEDED"/>
</svg>
